<svg width="22" height="21" viewBox="0 0 22 21" fill="none" xmlns="http://www.w3.org/2000/svg">
<path d="M5.833 9.95124L9.208 11.9901L9.256 12.0224L9.3025 12.0624L9.3555 12.1003C9.54302 12.2442 9.69762 12.4283 9.8085 12.6398C9.91939 12.8513 9.98389 13.085 9.9975 13.3246L10 13.4291V17.1606C10 17.7626 9.6785 18.3163 9.1885 18.5914L5.7865 20.7953C5.2965 21.0709 4.7035 21.0709 4.1865 20.7789L0.839 18.6083C0.5855 18.466 0.373922 18.2566 0.226345 18.002C0.0787673 17.7474 0.000600033 17.4568 0 17.1606V13.4286C0 12.862 0.285 12.3385 0.738 12.0429L4.213 9.94356C4.713 9.66077 5.32 9.66077 5.833 9.95124ZM5 12.8052C4.60218 12.8052 4.22064 12.9671 3.93934 13.2553C3.65804 13.5435 3.5 13.9344 3.5 14.342V17.4157C3.5 17.5516 3.55268 17.6819 3.64645 17.778C3.74021 17.8741 3.86739 17.928 4 17.928C4.13261 17.928 4.25979 17.8741 4.35355 17.778C4.44732 17.6819 4.5 17.5516 4.5 17.4157V16.3912H5.5V17.4157C5.50002 17.5412 5.54498 17.6623 5.62636 17.7561C5.70774 17.8499 5.81987 17.9098 5.9415 17.9244L6 17.928C6.13261 17.928 6.25979 17.8741 6.35355 17.778C6.44732 17.6819 6.5 17.5516 6.5 17.4157V14.342C6.5 13.9344 6.34196 13.5435 6.06066 13.2553C5.77936 12.9671 5.39782 12.8052 5 12.8052ZM5 13.8298C5.13261 13.8298 5.25979 13.8837 5.35355 13.9798C5.44732 14.0759 5.5 14.2062 5.5 14.342V15.3666H4.5V14.342C4.50002 14.2166 4.54498 14.0955 4.62636 14.0017C4.70774 13.9079 4.81987 13.848 4.9415 13.8333L5 13.8298Z" fill="black"/>
<path d="M11.833 0.21882L15.208 2.25772L15.256 2.28999L15.3025 2.32995L15.3555 2.36786C15.543 2.51178 15.6976 2.69591 15.8085 2.90738C15.9194 3.11885 15.9839 3.35257 15.9975 3.59222L16 3.69672V7.42821C16 8.03015 15.6785 8.58393 15.1885 8.85902L11.7865 11.0629C11.2965 11.3385 10.7035 11.3385 10.1865 11.0465L6.839 8.87593C6.5855 8.73363 6.37392 8.52423 6.22634 8.26958C6.07877 8.01493 6.0006 7.72437 6 7.42821V3.69621C6 3.12962 6.285 2.60607 6.738 2.31048L10.213 0.211135C10.713 -0.0716462 11.32 -0.0716462 11.833 0.21882ZM12 3.07276H10C9.86739 3.07276 9.74021 3.12673 9.64645 3.22281C9.55268 3.31888 9.5 3.44918 9.5 3.58505C9.5 3.72091 9.55268 3.85121 9.64645 3.94729C9.74021 4.04336 9.86739 4.09733 10 4.09733H10.5V7.68333C10.5 7.80881 10.545 7.92991 10.6264 8.02368C10.7077 8.11744 10.8199 8.17735 10.9415 8.19203L11 8.19561C11.1326 8.19561 11.2598 8.14164 11.3536 8.04557C11.4473 7.9495 11.5 7.8192 11.5 7.68333V4.09733H12C12.1225 4.09732 12.2407 4.05125 12.3322 3.96787C12.4237 3.88449 12.4822 3.7696 12.4965 3.64498L12.5 3.58505C12.5 3.44918 12.4473 3.31888 12.3536 3.22281C12.2598 3.12673 12.1326 3.07276 12 3.07276Z" fill="black"/>
<path d="M17.833 9.95124L21.208 11.9901L21.256 12.0224L21.3025 12.0624L21.3555 12.1003C21.543 12.2442 21.6976 12.4283 21.8085 12.6398C21.9194 12.8513 21.9839 13.085 21.9975 13.3246L22 13.4291V17.1606C22 17.7626 21.6785 18.3163 21.1885 18.5914L17.7865 20.7953C17.2965 21.0709 16.7035 21.0709 16.1865 20.7789L12.839 18.6083C12.5855 18.466 12.3739 18.2566 12.2263 18.002C12.0788 17.7474 12.0006 17.4568 12 17.1606V13.4286C12 12.862 12.285 12.3385 12.738 12.0429L16.213 9.94356C16.713 9.66077 17.32 9.66077 17.833 9.95124ZM18.2235 12.8595C18.1049 12.7988 17.9677 12.7889 17.842 12.8318C17.7163 12.8747 17.6123 12.9671 17.553 13.0885L17 14.2206L16.447 13.0885C16.3923 12.9762 16.2992 12.8884 16.1855 12.8417C16.0717 12.7951 15.9452 12.7928 15.83 12.8354L15.7765 12.8595C15.658 12.9203 15.5679 13.0268 15.526 13.1556C15.4841 13.2844 15.4938 13.425 15.553 13.5465L16.44 15.3666L15.5525 17.1868C15.4977 17.299 15.485 17.4278 15.5168 17.549C15.5486 17.6701 15.6227 17.7751 15.725 17.844L15.776 17.8737C15.8946 17.9344 16.0318 17.9444 16.1575 17.9014C16.2832 17.8585 16.3872 17.7662 16.4465 17.6447L17 16.5126L17.553 17.6447C17.6077 17.757 17.7008 17.8449 17.8145 17.8915C17.9283 17.9382 18.0548 17.9404 18.17 17.8978L18.2235 17.8737C18.342 17.813 18.4321 17.7065 18.474 17.5776C18.5159 17.4488 18.5062 17.3082 18.447 17.1868L17.559 15.3666L18.447 13.5465C18.5018 13.4343 18.5145 13.3054 18.4827 13.1842C18.4509 13.0631 18.3768 12.9581 18.2745 12.8892L18.2235 12.8595Z" fill="black"/>
</svg>
