<svg width="57" height="56" viewBox="0 0 57 56" fill="none" xmlns="http://www.w3.org/2000/svg">
<rect width="57" height="56" fill="black"/>
<path fill-rule="evenodd" clip-rule="evenodd" d="M38.4181 39.5535L33.8733 31.028V39.4418H24.8846V38.1847C24.3204 38.6077 23.6773 38.9647 22.9553 39.2551C21.8258 39.691 20.5864 39.9088 19.2374 39.9088C17.0726 39.9088 15.1588 39.395 13.496 38.3677C11.8332 37.3403 10.5312 35.9394 9.59 34.1649C8.64883 32.3593 8.17798 30.2891 8.17798 27.9543C8.178 25.6195 8.64881 23.5492 9.59 21.7436C10.5312 19.9381 11.8332 18.5371 13.496 17.5409C15.1588 16.5136 17.0727 16 19.2374 16C20.5864 16 21.8258 16.2336 22.9553 16.7006C23.6773 16.9716 24.3204 17.3151 24.8846 17.7307V16.467L33.8733 16.467V24.2246L38.3712 16.5785L48.3009 16.5785L41.1082 27.2437L48.7715 39.5535H38.4181ZM23.578 28.004C23.578 25.5507 21.5738 23.5618 19.1014 23.5617C16.6291 23.5618 14.6246 25.5507 14.6246 28.004C14.6246 30.4572 16.6291 32.4459 19.1014 32.446C21.5738 32.4459 23.578 30.4572 23.578 28.004Z" fill="white"/>
</svg>
