<?xml version="1.0" standalone="no"?>
<!DOCTYPE svg PUBLIC "-//W3C//DTD SVG 20010904//EN"
 "http://www.w3.org/TR/2001/REC-SVG-20010904/DTD/svg10.dtd">
<svg version="1.0" xmlns="http://www.w3.org/2000/svg"
 width="285.000000pt" height="104.650096pt" viewBox="0 0 285.000000 104.650096"
 preserveAspectRatio="xMidYMid meet">
<metadata>
Created by Potrace Professional 1.1m
</metadata>
<g transform="translate(-2.000000,105.664754) rotate(-360.00) scale(0.095238,-0.095238)"
fill="#000000" stroke="none">
<path d="M1368 1098 c-239 -54 -380 -254 -381 -537 0 -181 53 -321 158 -418
99 -92 213 -133 367 -132 294 0 476 153 523 436 49 302 -82 558 -328 637 -83
27 -251 34 -339 14z m198 -485 c24 -22 26 -80 3 -103 -26 -26 -94 -22 -114 7
-22 32 -21 67 5 92 25 26 80 28 106 4z"/>
<path d="M21 562 l0 -530 452 0 451 0 0 231 0 231 -226 0 -225 0 0 299 0 299
-226 0 -226 0 0 -530z"/>
<path d="M2493 1082 c-120 -18 -212 -62 -281 -136 -86 -92 -112 -182 -112
-383 0 -214 30 -316 122 -415 65 -70 134 -106 225 -114 74 -6 121 9 172 55 42
39 41 41 21 -34 l-7 -24 190 0 191 1 0 262 0 263 -189 0 -189 0 0 -32 c0 -26
-5 -31 -26 -31 -52 0 -77 76 -37 115 19 20 35 21 231 21 l210 0 0 231 0 231
-234 -1 c-129 -1 -258 -5 -287 -9z"/>
</g>
</svg>
