<?xml version="1.0" standalone="no"?>
<!DOCTYPE svg PUBLIC "-//W3C//DTD SVG 20010904//EN"
 "http://www.w3.org/TR/2001/REC-SVG-20010904/DTD/svg10.dtd">
<svg version="1.0" xmlns="http://www.w3.org/2000/svg"
 width="382.001863pt" height="102.746063pt" viewBox="0 0 382.001863 102.746063"
 preserveAspectRatio="xMidYMid meet">
<metadata>
Created by Potrace Professional 1.1m
</metadata>
<g transform="translate(-1.998137,105.000000) rotate(-360.00) scale(0.095238,-0.095238)"
fill="#000000" stroke="none">
<path d="M305 1090 c-191 -27 -284 -135 -284 -329 0 -106 22 -173 73 -218 55
-50 97 -60 253 -60 95 0 137 -4 152 -14 19 -14 19 -15 -4 -27 -16 -9 -91 -11
-248 -9 l-226 3 0 -197 0 -197 281 0 c154 0 314 5 354 11 133 19 218 74 262
168 18 38 22 67 22 162 -1 131 -18 182 -82 230 -50 38 -103 48 -249 49 -130 0
-167 7 -153 30 5 8 83 12 248 12 l241 0 0 199 0 200 -286 -2 c-157 -1 -317 -5
-354 -11z"/>
<path d="M1019 572 l0 -530 225 0 226 0 0 188 c0 104 3 196 6 205 9 21 42 21
51 0 3 -9 6 -101 6 -205 l0 -188 227 0 226 0 -4 255 c-3 214 -7 263 -23 310
-25 68 -91 146 -147 171 -90 41 -226 14 -302 -61 l-40 -39 0 212 0 213 -226 0
-225 0 0 -531z"/>
<path d="M2930 572 l0 -530 225 0 226 0 0 530 0 531 -226 0 -225 0 0 -531z"/>
<path d="M3774 1092 c-90 -13 -158 -41 -209 -86 -103 -91 -110 -127 -110 -589
l0 -375 225 0 226 0 0 200 0 199 63 0 63 0 0 116 0 115 -63 0 c-45 0 -63 4
-63 14 0 25 25 39 76 39 l50 0 0 189 0 189 -102 -2 c-57 -1 -127 -5 -156 -9z"/>
<path d="M2385 814 c-154 -35 -262 -112 -315 -224 -25 -53 -28 -72 -28 -175 0
-97 4 -124 23 -165 49 -105 161 -183 312 -215 84 -18 310 -14 398 7 l50 12 0
163 c0 150 -2 163 -19 156 -68 -26 -248 -23 -293 4 -17 11 -17 12 4 6 13 -4
58 -6 99 -6 171 0 275 114 246 269 -11 57 -79 125 -151 153 -78 29 -233 36
-326 15z m176 -335 c15 -18 4 -27 -32 -27 -30 0 -46 13 -35 31 9 15 53 13 67
-4z"/>
</g>
</svg>
