<?xml version="1.0" standalone="no"?>
<!DOCTYPE svg PUBLIC "-//W3C//DTD SVG 20010904//EN"
 "http://www.w3.org/TR/2001/REC-SVG-20010904/DTD/svg10.dtd">
<svg version="1.0" xmlns="http://www.w3.org/2000/svg"
 width="458.858618pt" height="139.248582pt" viewBox="0 0 458.858618 139.248582"
 preserveAspectRatio="xMidYMid meet">
<metadata>
Created by Potrace Professional 1.1m
</metadata>
<g transform="translate(-2.000000,140.839198) rotate(-360.00) scale(0.095238,-0.095238)"
fill="#000000" stroke="none">
<path d="M256 1470 c-155 -31 -260 -175 -225 -310 21 -86 48 -125 201 -285 81
-86 155 -168 163 -184 36 -70 26 -170 -20 -203 -31 -22 -101 -19 -137 4 -54
36 -87 96 -102 189 -11 67 -24 85 -62 85 -51 0 -53 -8 -53 -253 0 -193 3 -231
16 -244 22 -22 32 -21 76 5 36 23 36 23 101 3 98 -30 197 -27 271 10 107 52
183 162 203 291 16 108 -40 269 -124 357 -25 26 -102 100 -173 165 -97 90
-130 128 -138 157 -22 80 37 140 119 117 41 -11 82 -55 115 -122 21 -45 47
-61 87 -53 17 3 20 17 22 126 3 121 3 123 -23 140 -22 15 -31 15 -63 4 -29
-11 -48 -11 -90 -1 -60 14 -100 14 -164 2z"/>
<path d="M727 1453 c-23 -10 -15 -55 14 -73 l26 -18 -3 -486 -3 -486 -24 -33
c-13 -18 -23 -43 -21 -56 3 -22 8 -23 157 -26 131 -2 155 0 167 15 12 14 11
23 -9 57 -22 39 -23 50 -23 355 0 210 4 318 11 322 6 4 23 4 38 0 50 -12 56
-51 56 -353 0 -261 -1 -277 -23 -320 -36 -74 -26 -79 158 -76 149 3 154 4 157
26 2 13 -8 38 -21 56 -23 32 -24 43 -30 287 -6 271 -7 276 -65 360 -44 63
-102 92 -197 99 l-79 5 -3 162 c-1 97 -7 167 -14 176 -8 10 -45 13 -134 13
-67 -1 -128 -4 -135 -6z"/>
<path d="M2050 1453 c-23 -10 -15 -55 14 -73 l26 -18 -3 -486 -3 -486 -24 -33
c-13 -18 -23 -43 -21 -56 3 -22 7 -23 159 -26 196 -3 214 7 159 88 l-26 39 0
516 c0 388 -3 519 -13 529 -12 12 -239 17 -268 6z"/>
<path d="M2633 1444 c-95 -33 -147 -118 -161 -263 -7 -60 -11 -71 -32 -79 -20
-7 -25 -17 -25 -46 0 -31 4 -38 27 -44 l26 -6 -3 -308 c-3 -303 -3 -308 -27
-341 -13 -18 -23 -43 -21 -56 3 -22 7 -23 159 -26 196 -3 214 7 159 88 l-26
39 0 302 0 301 32 7 c27 5 31 10 31 43 0 27 -5 39 -18 43 -36 11 -50 23 -54
42 -2 11 -17 52 -34 90 -34 78 -38 116 -15 134 12 11 18 7 31 -19 19 -36 49
-49 79 -33 17 9 22 22 22 64 0 51 -2 54 -37 68 -44 19 -62 19 -113 0z"/>
<path d="M2826 1450 c-8 -5 -12 -22 -10 -38 2 -22 10 -32 30 -37 l26 -6 3
-445 c1 -246 0 -461 -3 -479 -3 -19 -18 -51 -33 -73 -15 -23 -25 -50 -23 -66
l3 -28 303 -3 c215 -2 308 1 318 10 27 22 47 119 53 257 8 158 3 185 -32 201
-40 18 -70 -11 -81 -79 -17 -111 -68 -171 -146 -170 -84 0 -84 -1 -84 465 l0
405 29 14 c32 15 42 43 23 66 -10 12 -47 15 -187 15 -96 0 -181 -4 -189 -9z"/>
<path d="M1656 1109 c-132 -48 -214 -197 -225 -411 -6 -118 12 -210 54 -284
97 -164 292 -210 419 -98 68 59 94 128 95 246 l1 94 -41 0 c-45 0 -49 -6 -63
-92 -11 -60 -55 -104 -108 -106 -23 0 -51 6 -61 15 -37 30 -60 105 -66 207
l-5 97 152 0 c185 0 192 3 185 85 -15 179 -182 302 -337 247z m112 -104 c8
-18 17 -56 21 -84 l6 -49 -68 0 c-77 0 -80 4 -56 89 22 82 73 105 97 44z"/>
<path d="M3755 1108 c-125 -45 -207 -189 -223 -395 -18 -217 74 -402 221 -445
66 -20 94 -20 163 0 102 31 181 131 209 265 27 127 4 314 -50 421 -69 135
-199 197 -320 154z m113 -98 c26 -49 41 -193 36 -353 -3 -134 -6 -155 -25
-181 -47 -62 -92 -35 -111 66 -13 71 -5 339 12 413 20 82 61 108 88 55z"/>
<path d="M4394 1078 c-126 -59 -205 -225 -204 -430 0 -155 38 -268 114 -336
70 -64 148 -73 213 -27 16 11 34 18 40 14 6 -3 11 -34 11 -67 0 -92 -44 -135
-110 -110 -9 3 -27 25 -40 47 -45 81 -134 69 -134 -18 0 -75 93 -133 214 -134
120 -1 214 43 274 128 l31 45 -3 413 -3 414 22 12 c16 8 22 20 20 40 l-4 28
-194 3 c-185 2 -197 1 -247 -22z m150 -62 c9 -9 13 -81 13 -259 0 -277 -4
-298 -60 -303 -28 -3 -36 1 -52 31 -17 30 -19 61 -19 219 0 193 9 248 48 297
23 30 50 36 70 15z"/>
</g>
</svg>
