<?xml version="1.0" standalone="no"?>
<!DOCTYPE svg PUBLIC "-//W3C//DTD SVG 20010904//EN"
 "http://www.w3.org/TR/2001/REC-SVG-20010904/DTD/svg10.dtd">
<svg version="1.0" xmlns="http://www.w3.org/2000/svg"
 width="486.870322pt" height="144.514652pt" viewBox="0 0 486.870322 144.514652"
 preserveAspectRatio="xMidYMid meet">
<metadata>
Created by Potrace Professional 1.1m
</metadata>
<g transform="translate(-2.000000,145.882539) rotate(-360.00) scale(0.095238,-0.095238)"
fill="#000000" stroke="none">
<path d="M822 1521 c-7 -7 -45 -23 -84 -36 -39 -13 -73 -31 -74 -39 -2 -9 13
-25 32 -36 25 -15 38 -32 43 -56 10 -53 8 -866 -3 -895 -5 -14 -27 -36 -48
-48 -67 -40 -45 -49 124 -51 142 -1 154 0 154 18 0 11 -13 24 -32 32 -17 7
-36 21 -42 32 -6 10 -10 125 -10 259 0 229 1 243 22 269 65 83 177 78 219 -9
20 -40 22 -65 22 -277 0 -253 3 -235 -63 -284 -45 -34 -19 -41 139 -39 125 1
149 4 152 18 2 9 -11 23 -34 33 -22 11 -39 28 -42 42 -2 13 -6 132 -8 265 -4
200 -7 249 -22 284 -37 85 -93 121 -191 121 -73 -1 -117 -19 -166 -69 l-38
-39 -3 256 c-2 219 -5 256 -19 259 -9 1 -21 -3 -28 -10z"/>
<path d="M2137 1515 c-18 -9 -58 -25 -89 -35 -32 -10 -60 -25 -61 -34 -2 -8
12 -25 32 -36 25 -15 38 -32 43 -56 10 -53 8 -866 -3 -895 -5 -14 -27 -36 -48
-48 -67 -40 -45 -49 124 -51 142 -1 154 0 154 18 0 11 -13 24 -32 32 -17 7
-35 18 -39 24 -4 7 -10 256 -13 553 -6 594 -2 565 -68 528z"/>
<path d="M2612 1523 c-72 -22 -146 -89 -188 -171 -16 -32 -25 -72 -29 -139
l-6 -95 -40 -19 c-31 -15 -39 -25 -37 -42 3 -19 9 -22 43 -19 l39 3 0 -278 c0
-153 -4 -290 -10 -304 -5 -14 -27 -36 -48 -48 -68 -40 -45 -49 136 -51 162 -1
165 -1 161 21 -2 14 -14 25 -33 30 -16 4 -39 16 -50 26 -18 17 -19 37 -19 310
l0 292 70 3 c69 3 71 4 75 31 3 34 -23 44 -98 38 l-47 -3 0 115 c0 181 22 237
97 237 35 0 48 -7 92 -53 29 -31 59 -52 73 -52 28 0 74 44 74 73 0 38 -30 81
-65 93 -38 14 -147 14 -190 2z"/>
<path d="M220 1461 c-155 -51 -229 -205 -163 -343 35 -74 75 -116 237 -245
169 -134 222 -201 228 -287 9 -112 -62 -190 -169 -189 -126 1 -212 80 -269
249 -13 38 -24 53 -40 56 -23 3 -23 0 -23 -138 0 -125 2 -143 20 -159 60 -54
303 -86 412 -55 130 38 199 130 200 267 1 136 -57 222 -250 372 -133 102 -211
186 -220 235 -25 134 63 223 178 179 61 -23 110 -76 154 -167 53 -111 67 -103
71 38 3 130 0 136 -71 168 -36 16 -75 22 -158 24 -61 2 -122 0 -137 -5z"/>
<path d="M3091 1446 c-8 -12 16 -39 35 -39 8 0 26 -12 40 -26 l26 -26 0 -450
c0 -498 5 -463 -68 -497 -18 -8 -32 -22 -32 -30 0 -14 48 -16 340 -19 242 -1
344 1 355 10 10 8 14 43 14 130 0 66 -4 122 -8 124 -16 10 -32 -9 -43 -51 -32
-114 -82 -145 -246 -150 -97 -3 -117 -1 -134 14 -20 18 -20 38 -20 472 0 500
-4 472 65 498 17 6 29 19 29 30 0 18 -12 19 -174 19 -96 0 -177 -4 -179 -9z"/>
<path d="M4691 1119 c-89 -32 -136 -89 -153 -184 -18 -100 8 -180 77 -241 21
-19 37 -36 34 -38 -2 -3 -33 -23 -69 -47 -80 -51 -81 -65 -20 -157 l45 -67
-61 -59 c-58 -57 -60 -62 -60 -111 0 -106 72 -175 203 -195 163 -26 324 42
387 163 17 32 23 62 23 122 1 104 -31 171 -100 210 -43 24 -56 26 -190 26
-161 0 -188 9 -148 48 17 17 43 24 115 32 153 16 223 54 263 144 26 60 24 176
-5 225 l-23 39 57 0 c52 0 58 2 64 26 10 41 -2 48 -94 48 -48 0 -110 7 -139
15 -63 19 -154 20 -206 1z m140 -43 c88 -46 111 -296 35 -378 -23 -25 -33 -28
-71 -23 -31 4 -52 16 -72 37 -75 85 -60 338 21 368 40 15 52 14 87 -4z m88
-681 c103 -31 124 -185 35 -265 -78 -70 -244 -55 -305 28 -65 89 -15 233 84
244 78 8 145 6 186 -7z"/>
<path d="M1567 1096 c-67 -33 -121 -94 -152 -171 -19 -49 -23 -79 -23 -185 0
-152 21 -215 97 -300 123 -137 307 -140 430 -6 24 27 45 55 45 64 0 30 -24 29
-57 -3 -120 -116 -291 -64 -347 107 -10 30 -21 91 -24 136 l-6 81 206 0 c199
0 206 1 218 22 38 71 -48 224 -150 266 -64 27 -172 22 -237 -11z m202 -49 c28
-24 46 -78 39 -121 -6 -37 -59 -54 -170 -54 -89 0 -94 1 -94 22 0 44 25 107
58 142 29 31 40 35 87 35 40 0 60 -6 80 -24z"/>
<path d="M4057 1110 c-84 -33 -140 -92 -181 -190 -24 -57 -27 -79 -27 -190 0
-108 3 -135 24 -188 29 -72 92 -145 153 -178 35 -18 61 -23 137 -23 84 0 100
3 144 29 92 54 146 146 168 283 30 196 -44 380 -179 446 -47 23 -191 30 -239
11z m153 -44 c79 -41 118 -151 118 -341 1 -195 -34 -299 -114 -333 -67 -28
-139 11 -178 95 -69 151 -55 448 24 542 44 53 95 65 150 37z"/>
</g>
</svg>
