<?xml version="1.0" standalone="no"?>
<!DOCTYPE svg PUBLIC "-//W3C//DTD SVG 20010904//EN"
 "http://www.w3.org/TR/2001/REC-SVG-20010904/DTD/svg10.dtd">
<svg version="1.0" xmlns="http://www.w3.org/2000/svg"
 width="495.569380pt" height="144.685925pt" viewBox="0 0 495.569380 144.685925"
 preserveAspectRatio="xMidYMid meet">
<metadata>
Created by Potrace Professional 1.1m
</metadata>
<g transform="translate(-2.375041,145.988941) rotate(-360.00) scale(0.095238,-0.095238)"
fill="#000000" stroke="none">
<path d="M1145 1518 c-15 -9 -57 -23 -95 -33 -92 -24 -105 -42 -61 -78 l34
-29 -151 -494 c-83 -271 -148 -501 -144 -510 5 -13 21 -17 60 -17 l53 0 22 50
c55 128 159 337 209 419 60 99 137 187 158 180 39 -13 35 -36 -57 -310 -50
-149 -91 -283 -91 -298 0 -14 6 -35 14 -46 21 -29 91 -16 159 31 66 45 157
156 148 180 -9 23 -18 17 -71 -48 -48 -60 -78 -77 -88 -50 -4 9 34 139 84 289
49 150 90 285 90 300 0 63 -70 87 -146 51 -77 -36 -207 -195 -284 -347 -13
-25 -25 -44 -28 -42 -2 3 50 183 117 401 66 218 118 401 114 406 -8 13 -15 12
-46 -5z"/>
<path d="M2447 1518 c-15 -9 -57 -23 -95 -33 -92 -24 -105 -42 -61 -78 l34
-29 -145 -472 c-159 -521 -167 -561 -107 -568 53 -6 121 29 189 97 78 79 100
116 80 135 -10 10 -17 7 -30 -13 -32 -48 -88 -105 -103 -105 -9 0 -14 11 -14
31 0 17 68 256 152 531 84 275 150 504 146 509 -8 13 -15 12 -46 -5z"/>
<path d="M2929 1513 c-140 -54 -239 -171 -287 -338 -16 -55 -21 -61 -62 -78
-70 -28 -77 -57 -12 -57 20 0 36 -3 36 -5 0 -15 -143 -534 -174 -631 -45 -142
-97 -247 -132 -266 -41 -24 -81 -8 -100 38 -9 22 -22 43 -28 47 -45 29 -122
-27 -122 -89 0 -50 29 -73 97 -79 147 -12 270 80 374 281 63 123 92 212 210
659 l12 45 63 0 c55 0 64 2 80 27 24 36 6 48 -68 44 l-55 -3 7 31 c18 86 70
228 98 266 51 70 120 75 149 12 24 -50 43 -65 76 -57 55 14 99 98 72 137 -26
40 -152 48 -234 16z"/>
<path d="M497 1455 c-144 -45 -249 -189 -230 -315 9 -58 45 -113 156 -240 104
-119 136 -178 142 -262 9 -118 -57 -213 -165 -239 -159 -38 -253 51 -253 242
0 60 -1 64 -23 61 -21 -3 -29 -22 -65 -143 -39 -131 -41 -140 -24 -158 33 -37
138 -60 270 -60 113 0 125 2 189 33 93 44 140 88 179 167 30 60 32 75 29 144
-6 101 -30 149 -146 283 -141 163 -170 237 -130 332 32 76 90 118 164 117 92
0 155 -74 155 -183 1 -119 44 -103 86 32 35 111 36 132 10 156 -50 45 -245 64
-344 33z"/>
<path d="M3338 1436 c-8 -15 -3 -21 27 -33 29 -13 37 -22 37 -44 0 -26 -99
-362 -226 -767 -51 -161 -39 -144 -141 -193 -9 -4 -18 -15 -20 -25 -3 -15 27
-17 328 -17 284 0 333 2 347 16 14 15 80 206 80 234 0 34 -25 15 -67 -49 -53
-83 -104 -118 -194 -137 -116 -24 -222 -8 -222 34 0 7 61 213 136 458 144 472
145 476 213 490 24 6 50 30 50 49 0 2 -76 3 -169 3 -151 0 -170 -2 -179 -19z"/>
<path d="M4801 1117 c-105 -38 -201 -165 -210 -283 -5 -58 -2 -72 22 -113 15
-26 36 -50 46 -54 14 -5 -2 -18 -65 -51 -105 -56 -113 -72 -76 -164 l27 -66
-62 -58 c-179 -166 -72 -350 179 -308 206 34 366 179 384 348 5 46 2 64 -15
91 -39 61 -73 71 -242 73 -161 2 -186 9 -154 45 24 26 66 39 158 48 151 14
268 100 309 229 15 44 18 116 8 150 -7 19 -2 22 53 31 59 9 61 11 64 45 3 34
2 35 -26 29 -88 -19 -125 -19 -180 3 -65 26 -154 28 -220 5z m159 -60 c40 -53
22 -209 -33 -297 -54 -87 -138 -114 -181 -59 -21 26 -23 38 -19 115 4 73 11
98 41 157 58 115 142 152 192 84z m-118 -659 c107 -23 132 -90 69 -184 -82
-124 -264 -168 -343 -83 -54 57 -32 196 39 243 49 32 148 42 235 24z"/>
<path d="M1815 1109 c-100 -36 -192 -126 -258 -255 -55 -104 -76 -189 -76
-294 0 -141 52 -213 161 -222 75 -6 148 27 233 106 74 68 98 107 80 125 -10
10 -23 1 -59 -39 -91 -105 -204 -139 -252 -75 -19 25 -22 43 -20 122 1 51 6
102 12 113 6 11 41 29 88 44 156 50 282 130 320 204 19 37 21 101 3 133 -25
48 -148 68 -232 38z m102 -54 c26 -40 3 -121 -51 -180 -38 -42 -170 -119 -203
-119 -26 0 51 184 109 260 51 66 116 84 145 39z"/>
<path d="M4167 1109 c-136 -49 -255 -202 -303 -391 -46 -178 -12 -304 95 -359
60 -31 150 -28 222 8 151 76 273 303 275 510 1 102 -17 153 -69 201 -49 46
-141 59 -220 31z m123 -50 c17 -18 21 -41 24 -128 6 -193 -59 -400 -157 -498
-49 -49 -72 -60 -110 -51 -44 12 -61 62 -60 175 2 202 99 439 205 504 44 26
73 26 98 -2z"/>
</g>
</svg>
