<svg width="321" height="321" viewBox="0 0 321 321" fill="none" xmlns="http://www.w3.org/2000/svg">
<g clip-path="url(#clip0_363_90)">
<rect width="321" height="321" rx="72" fill="#2200FF"/>
<path d="M246.708 261.617L207.723 187.915L207.723 260.651L130.618 260.651L130.618 249.784C125.778 253.441 120.261 256.525 114.067 259.036C104.379 262.804 93.7482 264.688 82.1758 264.688C63.6062 264.688 47.1894 260.247 32.9258 251.366C18.6623 242.485 7.49361 230.374 -0.580076 215.034C-8.65368 199.425 -12.6904 181.528 -12.6904 161.344C-12.6904 141.16 -8.65377 123.262 -0.580078 107.653C7.49367 92.0442 18.6622 79.9332 32.9258 71.3213C47.1894 62.4402 63.6062 58 82.1758 58C93.7481 58 104.379 60.0188 114.067 64.0557C120.261 66.3993 125.778 69.3679 130.618 72.9609L130.618 62.0371L207.723 62.0371L207.723 129.101L246.304 63.002L331.482 63.002L269.782 155.202L335.52 261.617L246.708 261.617ZM119.41 161.771C119.41 140.563 102.217 123.37 81.0088 123.37C59.8006 123.37 42.6078 140.563 42.6074 161.771C42.6074 182.98 59.8003 200.174 81.0088 200.174C102.217 200.174 119.41 182.98 119.41 161.771Z" fill="white"/>
</g>
<defs>
<clipPath id="clip0_363_90">
<rect width="321" height="321" rx="72" fill="white"/>
</clipPath>
</defs>
</svg>
