<svg width="643" height="207" viewBox="0 0 643 207" fill="none" xmlns="http://www.w3.org/2000/svg">
<path d="M64.3887 66.4375C72.243 66.4375 79.4585 67.8103 86.0342 70.5557C90.2379 72.1495 93.9825 74.1678 97.2676 76.6113V69.1826H149.6V204.255H145.423C145.15 204.127 144.812 204.064 144.407 204.064C143.969 204.064 143.631 204.13 143.38 204.255H131.886C131.625 204.128 131.304 204.064 130.923 204.064C130.542 204.064 130.222 204.128 129.961 204.255H118.229C117.968 204.128 117.647 204.064 117.267 204.064C116.886 204.064 116.566 204.128 116.305 204.255H104.658C104.397 204.128 104.076 204.064 103.695 204.064C103.315 204.064 102.994 204.128 102.733 204.255H97.2676V196.863C93.9823 199.35 90.2383 201.448 86.0342 203.156C79.4585 205.719 72.243 207 64.3887 207C51.785 207 40.642 203.98 30.9609 197.94C21.28 191.901 13.6995 183.665 8.21973 173.232C2.73987 162.617 0 150.446 0 136.719C1.01523e-05 122.992 2.74002 110.821 8.21973 100.206C13.6996 89.5907 21.2799 81.3538 30.9609 75.4971C40.642 69.4573 51.785 66.4375 64.3887 66.4375ZM244.954 66.4375C251.164 66.4375 256.462 67.1697 260.846 68.6338C265.412 70.098 269.066 72.2029 271.806 74.9482L241.667 117.775C240.388 116.311 238.47 115.122 235.913 114.207C233.538 113.109 230.707 112.56 227.419 112.56C221.939 112.56 217.829 114.207 215.089 117.501C212.349 120.612 210.979 125.189 210.979 131.229V204.255H159.08C158.807 204.127 158.47 204.064 158.064 204.064C157.759 204.064 157.497 204.096 157.276 204.157V69.1826H210.979V76.2705C220.153 69.7158 231.477 66.4376 244.954 66.4375ZM537.412 197.152C537.913 197.279 538.412 197.689 538.732 198.4C539.165 199.405 540.115 200.227 540.807 200.228C541.498 200.228 542.017 201.05 542.017 202.146C542.017 202.806 541.797 203.364 541.453 203.706H539.979L539.335 202.062C539.32 201.384 539.129 200.894 538.759 200.592L537.412 197.152ZM547.463 200.228C547.895 200.228 548.5 200.684 548.846 201.232C549.429 202.242 548.872 203.32 548.056 203.706H546.808C546.675 203.638 546.546 203.546 546.425 203.426C545.388 202.238 546.08 200.228 547.463 200.228ZM554.291 200.228C555.069 200.228 555.674 201.05 555.674 202.146C555.674 202.806 555.454 203.364 555.11 203.706H553.472C553.128 203.364 552.908 202.806 552.908 202.146C552.908 201.05 553.513 200.228 554.291 200.228ZM564.75 196.39C565.269 196.39 565.96 197.213 566.22 198.218C566.479 199.223 567.516 200.319 568.553 200.593C570.431 201.089 570.325 203.008 568.62 203.706H567.012C566.704 203.45 566.565 202.961 566.565 202.237C566.565 200.867 565.96 200.228 564.75 200.228C563.453 200.228 562.935 200.867 562.935 202.237C562.935 202.961 562.768 203.45 562.437 203.706H560.793C559.088 203.008 558.982 201.089 560.86 200.593C561.897 200.319 562.935 199.223 563.194 198.218C563.454 197.213 564.145 196.39 564.75 196.39ZM576.765 198.309C577.37 195.842 579.271 195.842 579.876 198.218C580.135 199.223 581.087 200.319 582.124 200.593C584.002 201.089 583.967 203.009 582.274 203.706H580.634C580.302 203.45 580.136 202.961 580.136 202.237C580.136 200.867 579.53 200.228 578.32 200.228C577.11 200.228 576.505 200.867 576.505 202.146C576.505 202.806 576.285 203.364 575.941 203.706H574.37C574.046 203.364 573.826 202.805 573.826 202.146C573.826 201.05 574.345 200.228 575.036 200.228C575.728 200.227 576.505 199.405 576.765 198.309ZM588.779 193.467C589.471 193.467 590.162 194.106 590.162 194.837C590.162 195.568 590.94 196.39 591.978 196.664C592.242 196.74 592.5 196.868 592.734 197.025L591.462 200.274C590.596 200.441 590.162 201.064 590.162 202.146C590.162 202.806 589.942 203.364 589.599 203.706H587.96C587.616 203.364 587.397 202.806 587.396 202.146C587.396 201.119 587.928 200.332 588.636 200.237L588.923 200.218C589.63 200.124 590.162 199.337 590.162 198.309C590.162 197.212 589.557 196.39 588.779 196.39C588.001 196.39 587.396 195.75 587.396 194.928C587.397 194.197 588.002 193.467 588.779 193.467ZM332.558 125.358L365.604 68.6338H423.416L381.538 131.336L390.916 146.548C390.779 146.52 390.637 146.504 390.493 146.504C389.456 146.504 388.678 147.144 388.678 147.966C388.678 148.697 389.456 149.336 390.493 149.336C391.188 149.336 391.835 148.993 392.134 148.523L423.252 198.996C423.369 199.451 423.6 199.814 423.886 200.024L425.26 202.252V199.891C425.616 199.551 425.846 198.982 425.846 198.309C425.846 197.635 425.617 197.065 425.26 196.726V193.207C425.616 192.881 425.846 192.276 425.846 191.548C425.846 190.864 425.607 190.355 425.26 190.048V171.11C425.616 170.771 425.846 170.202 425.846 169.528C425.846 168.854 425.617 168.285 425.26 167.945V163.963C426.102 163.558 426.329 162.864 426.105 161.762C425.866 160.834 425.626 160.297 425.26 160.111V80.1709L432.112 68.6348H478.96V73.6328C478.068 73.7881 477.622 74.4137 477.622 75.5117C477.622 76.6099 478.068 77.2343 478.96 77.3896V81.3076C478.068 81.4629 477.622 82.0885 477.622 83.1865C477.622 84.2847 478.068 84.9091 478.96 85.0645V102.493C478.24 102.515 477.622 103.069 477.622 104.201C477.622 105.389 478.012 106.026 478.96 106.175V110.088C478.068 110.243 477.622 110.869 477.622 111.968C477.622 113.066 478.068 113.69 478.96 113.846V116.92C478.24 116.951 477.622 117.505 477.622 118.637C477.622 119.825 478.012 120.394 478.96 120.524V131.578C478.64 131.572 478.35 131.664 478.141 131.885C477.048 133.039 477.576 134.639 478.96 134.94V138.869C478.068 139.024 477.622 139.65 477.622 140.748C477.622 141.846 478.068 142.471 478.96 142.626V145.736C478.698 145.777 478.446 145.907 478.227 146.139C477.051 147.382 477.51 149 478.96 149.29V153.214C478.068 153.369 477.622 153.995 477.622 155.093C477.622 156.191 478.068 156.815 478.96 156.971V160.335C478.241 160.384 477.622 160.911 477.622 161.944C477.622 162.964 478.068 163.578 478.96 163.731V167.649C478.068 167.803 477.622 168.417 477.622 169.437C477.622 170.28 478.171 171.122 478.96 171.533V175.196C478.17 175.607 477.622 176.45 477.622 177.294C477.622 178.314 478.068 178.927 478.96 179.081V181.994C478.068 182.15 477.622 182.775 477.622 183.873C477.622 185.152 477.017 185.791 475.807 185.791C474.597 185.791 473.991 185.152 473.991 183.873C473.991 182.046 472.176 181.315 470.966 182.594C469.67 183.964 470.361 185.791 472.176 185.791C473.31 185.791 473.913 186.353 473.984 187.478L473.998 187.942C474.069 189.067 474.672 189.629 475.807 189.629C477.017 189.629 477.622 188.989 477.622 187.71C477.622 186.612 478.068 185.986 478.96 185.831V189.677C478.17 189.837 477.621 190.385 477.621 190.999C477.621 193.283 474.77 193.74 474.251 191.639C473.646 189.355 470.361 188.99 470.361 191.183C470.362 192.005 471.139 192.918 472.176 193.192C473.127 193.466 473.991 194.289 473.991 195.02C473.991 195.75 473.127 196.39 472.176 196.39C470.966 196.39 470.361 197.03 470.361 198.309C470.361 199.405 469.755 200.228 468.978 200.228C468.2 200.227 467.595 199.405 467.595 198.309C467.595 197.03 466.989 196.39 465.779 196.39C463.36 196.39 463.359 199.862 465.779 200.502C467.411 200.933 467.438 202.889 466.366 203.705H458.247C457.349 203.385 456.704 202.729 456.704 202.146C456.704 201.507 457.482 200.776 458.52 200.502C459.556 200.228 460.334 199.223 460.334 198.218C460.334 197.03 459.729 196.39 458.52 196.39C457.309 196.39 456.704 197.029 456.704 198.309C456.704 199.405 456.099 200.227 455.321 200.228C454.63 200.228 454.024 199.405 454.024 198.309C454.024 197.029 453.419 196.39 452.209 196.39C450.999 196.39 450.394 197.03 450.394 198.309C450.394 199.405 450.999 200.227 451.69 200.228C452.468 200.228 453.073 201.05 453.073 202.146C453.073 202.805 452.854 203.363 452.511 203.705H365.877L332.59 140.652L332.725 203.705H279.021V2.74512H332.298L332.558 125.358ZM474.251 198.218C474.77 196.208 477.621 196.664 477.621 198.766C477.621 199.379 478.171 199.991 478.96 200.334V203.705H477.036C477.426 203.391 477.621 202.872 477.621 202.146C477.621 200.867 477.016 200.228 475.807 200.228C474.597 200.228 473.991 200.867 473.991 202.146C473.991 202.871 474.186 203.391 474.576 203.705H471.904C469.84 202.989 469.85 201.116 472.09 200.502C473.041 200.228 473.992 199.223 474.251 198.218ZM385.048 198.309C385.048 196.481 383.232 195.75 381.936 197.029C380.725 198.308 381.417 200.228 383.232 200.228C384.443 200.228 385.048 199.588 385.048 198.309ZM410.893 196.39C410.115 196.39 409.51 197.212 409.51 198.309C409.51 199.405 410.115 200.228 410.893 200.228C411.67 200.227 412.275 199.405 412.275 198.309C412.275 197.212 411.67 196.39 410.893 196.39ZM431.292 196.39C430.082 196.39 429.477 197.03 429.477 198.309C429.477 199.588 430.082 200.228 431.292 200.228C432.502 200.227 433.106 199.588 433.106 198.309C433.106 197.03 432.502 196.39 431.292 196.39ZM438.552 196.39C437.342 196.39 436.737 197.03 436.737 198.309C436.737 199.588 437.342 200.227 438.552 200.228C439.762 200.228 440.367 199.588 440.367 198.309C440.367 197.03 439.762 196.39 438.552 196.39ZM444.948 196.39C443.738 196.39 443.134 197.03 443.134 198.309C443.134 199.588 443.738 200.227 444.948 200.228C446.158 200.228 446.764 199.588 446.764 198.309C446.764 197.03 446.158 196.39 444.948 196.39ZM549.623 197.852C550.315 195.933 551.611 195.933 552.303 197.852C552.648 198.674 552.303 199.588 551.525 199.862C549.71 200.593 548.932 199.77 549.623 197.852ZM399.31 198.034C398.791 196.481 396.198 196.025 395.42 197.395C395.074 197.943 395.247 198.948 395.766 199.496C396.976 200.775 399.828 199.679 399.31 198.034ZM540.634 193.467C541.412 193.467 542.016 194.197 542.017 194.928C542.017 195.75 541.412 196.39 540.634 196.39C539.942 196.39 539.338 195.75 539.338 194.928C539.338 194.197 539.943 193.467 540.634 193.467ZM547.463 193.467C548.5 193.467 549.277 194.106 549.277 194.928C549.277 195.75 548.5 196.389 547.463 196.39C546.426 196.39 545.647 195.75 545.647 194.928C545.648 194.106 546.426 193.467 547.463 193.467ZM554.291 193.467C554.982 193.467 555.674 194.197 555.674 194.928C555.674 195.75 554.982 196.39 554.291 196.39C553.513 196.39 552.908 195.75 552.908 194.928C552.908 194.197 553.513 193.467 554.291 193.467ZM561.119 193.467C562.07 193.467 562.934 194.106 562.935 194.928C562.935 195.75 562.07 196.39 561.119 196.39C560.082 196.389 559.305 195.75 559.305 194.928C559.305 194.106 560.082 193.467 561.119 193.467ZM568.38 193.467C569.331 193.467 570.195 194.106 570.195 194.928C570.195 195.75 569.331 196.39 568.38 196.39C567.343 196.389 566.565 195.75 566.565 194.928C566.566 194.106 567.343 193.467 568.38 193.467ZM575.122 193.467C575.9 193.467 576.505 194.197 576.505 194.928C576.505 195.75 575.9 196.39 575.122 196.39C574.431 196.389 573.826 195.75 573.826 194.928C573.826 194.197 574.431 193.467 575.122 193.467ZM581.951 193.467C582.988 193.467 583.765 194.106 583.766 194.928C583.766 195.75 582.988 196.39 581.951 196.39C580.914 196.39 580.136 195.75 580.136 194.928C580.136 194.106 580.914 193.467 581.951 193.467ZM478.96 196.34C478.17 196.177 477.621 195.618 477.621 194.928C477.621 194.238 478.17 193.678 478.96 193.516V196.34ZM396.717 189.629C395.593 189.629 395.333 190.177 395.593 191.548C396.198 193.832 398.186 194.197 398.878 192.188C399.483 190.543 398.791 189.629 396.717 189.629ZM431.292 189.629C430.082 189.629 429.477 190.269 429.477 191.548C429.477 192.827 430.082 193.466 431.292 193.466C432.502 193.466 433.106 192.827 433.106 191.548C433.106 190.269 432.502 189.629 431.292 189.629ZM458.519 189.629C457.309 189.629 456.704 190.269 456.704 191.548C456.704 192.827 457.309 193.466 458.519 193.466C459.729 193.466 460.334 192.827 460.334 191.548C460.334 190.269 459.729 189.629 458.519 189.629ZM438.639 189.629C437.342 189.629 436.737 190.268 436.737 191.639C436.737 193.009 437.256 193.558 438.293 193.375C440.713 192.827 440.972 189.629 438.639 189.629ZM452.209 189.629C450.913 189.629 450.394 190.268 450.394 191.639C450.394 193.009 450.827 193.558 451.95 193.375C454.284 192.827 454.543 189.629 452.209 189.629ZM412.534 191.182C411.929 189.446 409.855 189.172 408.99 190.726C408.127 192.187 410.028 193.923 411.67 193.192C412.534 192.827 412.88 192.004 412.534 191.182ZM369.489 189.629C368.193 189.629 367.76 190.177 367.933 191.365C368.365 193.832 371.391 194.105 371.391 191.639C371.391 190.268 370.786 189.629 369.489 189.629ZM383.146 189.629C381.849 189.629 381.331 190.178 381.504 191.365C382.023 193.832 385.048 194.105 385.048 191.639C385.048 190.268 384.442 189.629 383.146 189.629ZM444.862 189.629C443.566 189.629 443.047 190.177 443.22 191.365C443.739 193.832 446.764 194.105 446.764 191.639C446.764 190.268 446.159 189.629 444.862 189.629ZM465.866 189.629C464.57 189.629 463.965 190.268 463.965 191.639C463.965 194.105 466.989 193.832 467.422 191.365C467.595 190.177 467.163 189.629 465.866 189.629ZM564.75 181.954C565.269 181.954 565.96 182.868 566.22 183.873C566.479 184.878 567.429 185.883 568.38 186.157C569.331 186.431 570.195 187.162 570.195 187.71C570.195 188.35 569.331 189.08 568.38 189.354C567.429 189.629 566.479 190.634 566.22 191.73C565.701 193.741 562.935 193.284 562.935 191.091C562.935 190.451 562.07 189.629 561.119 189.354C558.786 188.715 558.7 186.797 561.033 186.157C561.984 185.883 562.935 184.878 563.194 183.873C563.454 182.868 564.145 181.954 564.75 181.954ZM576.765 183.873C577.37 181.498 579.271 181.406 579.876 183.873C580.135 184.878 581.086 185.883 582.037 186.157C582.988 186.431 583.765 187.162 583.766 187.71C583.766 188.35 582.988 189.08 582.037 189.354C581.086 189.629 580.135 190.634 579.876 191.73C579.357 193.74 576.505 193.192 576.505 190.999C576.505 190.268 575.9 189.629 575.122 189.629C574.431 189.629 573.826 188.806 573.826 187.71C573.826 186.705 574.345 185.792 575.036 185.792C575.728 185.792 576.505 184.969 576.765 183.873ZM540.634 185.792C541.412 185.792 542.016 186.705 542.017 187.71C542.017 188.806 541.412 189.629 540.634 189.629C539.942 189.629 539.338 190.36 539.338 191.091C539.338 191.913 538.473 192.553 537.522 192.553C536.485 192.553 535.707 191.913 535.707 191.091C535.707 190.269 536.485 189.629 537.522 189.629C538.732 189.629 539.338 188.989 539.338 187.71C539.338 186.705 539.942 185.792 540.634 185.792ZM554.291 185.792C555.069 185.792 555.674 186.705 555.674 187.71C555.674 188.806 555.069 189.629 554.291 189.629C553.513 189.629 552.908 190.36 552.908 191.091C552.908 191.913 552.13 192.553 551.093 192.553C550.056 192.553 549.277 191.913 549.277 191.091C549.277 190.269 550.056 189.629 551.093 189.629C552.303 189.629 552.908 188.989 552.908 187.71C552.908 186.705 553.513 185.792 554.291 185.792ZM590.422 183.781C590.941 181.68 592.928 181.68 593.533 183.781C593.793 184.421 593.101 185.243 592.063 185.518C589.557 186.249 589.471 189.629 591.978 189.629C593.188 189.629 593.793 188.989 593.793 187.71C593.793 186.34 594.225 185.792 595.262 185.975C595.926 186.131 596.423 186.428 596.743 186.785L595.743 189.34C595.727 189.344 595.711 189.35 595.694 189.354C594.571 189.629 593.793 190.452 593.793 191.183C593.793 191.913 592.928 192.553 591.978 192.553C590.94 192.553 590.162 191.913 590.162 191.183C590.162 190.452 589.298 189.629 588.261 189.354C586.273 188.806 586.705 185.792 588.779 185.792C589.384 185.792 590.163 184.969 590.422 183.781ZM564.75 185.791C563.54 185.791 562.935 186.431 562.935 187.71C562.935 188.989 563.54 189.629 564.75 189.629C565.96 189.629 566.565 188.989 566.565 187.71C566.565 186.431 565.96 185.791 564.75 185.791ZM578.32 185.791C577.11 185.791 576.505 186.431 576.505 187.71C576.505 188.989 577.11 189.629 578.32 189.629C579.53 189.629 580.136 188.989 580.136 187.71C580.136 186.431 579.53 185.791 578.32 185.791ZM547.463 185.792C547.895 185.792 548.5 186.34 548.846 186.888C549.797 188.441 547.721 190.268 546.425 188.989C545.388 187.893 546.08 185.792 547.463 185.792ZM533.892 185.792C534.324 185.792 534.93 186.339 535.275 186.888C535.883 187.88 535.219 188.983 534.345 189.317L533.067 186.055C533.296 185.89 533.574 185.792 533.892 185.792ZM431.292 181.954C430.082 181.954 429.477 182.594 429.477 183.873C429.477 185.152 430.082 185.792 431.292 185.792C432.502 185.792 433.106 185.152 433.106 183.873C433.106 182.594 432.502 181.954 431.292 181.954ZM444.948 181.954C443.738 181.954 443.134 182.594 443.134 183.873C443.134 185.152 443.738 185.792 444.948 185.792C446.158 185.792 446.764 185.152 446.764 183.873C446.764 182.594 446.158 181.954 444.948 181.954ZM453.852 184.146C453.333 181.68 450.394 181.406 450.394 183.873C450.394 185.243 450.913 185.792 452.209 185.792C453.506 185.792 454.024 185.334 453.852 184.146ZM458.519 181.954C457.309 181.954 456.704 182.594 456.704 183.873C456.704 185.152 457.309 185.792 458.519 185.792C459.729 185.792 460.334 185.152 460.334 183.873C460.334 182.594 459.729 181.954 458.519 181.954ZM467.422 184.146C466.989 181.68 463.965 181.406 463.965 183.873C463.965 185.243 464.57 185.792 465.866 185.792C467.163 185.792 467.595 185.334 467.422 184.146ZM556.538 183.873C556.538 181.498 558.7 181.863 559.132 184.238C559.305 185.152 558.786 185.792 558.008 185.792C557.143 185.792 556.538 185.061 556.538 183.873ZM570.195 183.873C570.195 181.498 572.27 181.863 572.702 184.238C572.875 185.152 572.443 185.792 571.578 185.792C570.714 185.792 570.195 185.061 570.195 183.873ZM584.371 182.686C585.235 181.772 586.532 182.868 586.532 184.421C586.532 185.243 585.841 185.792 585.149 185.792C583.767 185.792 583.248 183.782 584.371 182.686ZM542.622 183.508C543.314 181.589 544.61 181.589 545.302 183.508C545.993 185.335 545.215 186.248 543.4 185.518C542.623 185.152 542.277 184.33 542.622 183.508ZM549.623 183.508C550.315 181.589 551.611 181.589 552.303 183.508C552.648 184.33 552.303 185.152 551.525 185.518C549.71 186.248 548.932 185.335 549.623 183.508ZM536.312 182.594C537.263 181.589 538.818 182.502 538.818 183.964C538.818 184.695 538.127 185.517 537.263 185.7C535.707 185.974 535.016 183.964 536.312 182.594ZM597.491 184.874C597.241 184.2 597.361 183.3 597.941 182.686C598.106 182.511 598.287 182.41 598.472 182.371L597.491 184.874ZM531.731 181.132C532.337 178.848 535.707 178.3 535.707 180.584C535.707 181.315 534.842 181.954 533.892 181.954C532.785 181.954 532.186 182.49 532.092 183.561L531.441 181.9C531.561 181.683 531.662 181.424 531.731 181.132ZM540.634 179.122C541.412 179.122 542.017 179.762 542.017 180.584C542.016 181.315 541.412 181.954 540.634 181.954C539.943 181.954 539.338 181.315 539.338 180.584C539.338 179.762 539.942 179.122 540.634 179.122ZM547.463 179.122C548.5 179.122 549.277 179.762 549.277 180.584C549.277 181.315 548.5 181.954 547.463 181.954C546.426 181.954 545.648 181.315 545.647 180.584C545.647 179.762 546.426 179.122 547.463 179.122ZM554.291 179.122C554.982 179.122 555.674 179.762 555.674 180.584C555.674 181.315 554.982 181.954 554.291 181.954C553.513 181.954 552.908 181.315 552.908 180.584C552.908 179.762 553.513 179.122 554.291 179.122ZM561.119 179.122C562.07 179.122 562.935 179.762 562.935 180.584C562.934 181.315 562.07 181.954 561.119 181.954C560.082 181.954 559.305 181.315 559.305 180.584C559.305 179.762 560.082 179.122 561.119 179.122ZM575.122 179.122C575.9 179.122 576.505 179.762 576.505 180.584C576.505 181.315 575.9 181.954 575.122 181.954C574.431 181.954 573.826 181.315 573.826 180.584C573.826 179.762 574.431 179.122 575.122 179.122ZM580.136 180.492C580.136 178.756 582.988 179.031 583.507 180.767C583.766 181.497 583.161 181.954 582.037 181.954C580.914 181.954 580.136 181.406 580.136 180.492ZM588.779 179.122C589.471 179.122 590.162 179.762 590.162 180.584C590.162 181.315 589.471 181.954 588.779 181.954C588.002 181.954 587.397 181.315 587.396 180.584C587.396 179.762 588.001 179.122 588.779 179.122ZM593.793 180.492C593.793 178.756 596.559 179.031 597.164 180.767C597.337 181.497 596.731 181.954 595.607 181.954C594.484 181.954 593.793 181.406 593.793 180.492ZM566.565 180.584C566.565 178.848 569.245 178.848 569.504 180.584C569.59 181.041 568.985 181.68 568.121 181.862C567.084 182.045 566.566 181.589 566.565 180.584ZM363.266 175.284C362.056 175.284 361.45 175.924 361.45 177.203C361.45 178.482 362.056 179.122 363.266 179.122C364.476 179.122 365.081 178.482 365.081 177.203C365.081 175.924 364.476 175.284 363.266 175.284ZM376.836 175.284C375.626 175.284 375.021 175.924 375.021 177.203C375.022 178.482 375.626 179.122 376.836 179.122C378.046 179.122 378.651 178.482 378.651 177.203C378.651 175.924 378.046 175.284 376.836 175.284ZM390.493 175.284C389.283 175.284 388.678 175.924 388.678 177.203C388.678 178.482 389.283 179.122 390.493 179.122C391.703 179.122 392.309 178.482 392.309 177.203C392.309 175.924 391.703 175.284 390.493 175.284ZM404.063 175.284C402.854 175.284 402.249 175.924 402.249 177.203C402.249 178.482 402.854 179.122 404.063 179.122C405.274 179.122 405.879 178.482 405.879 177.203C405.879 175.924 405.274 175.284 404.063 175.284ZM431.292 175.284C430.082 175.284 429.477 175.924 429.477 177.203C429.477 178.482 430.082 179.122 431.292 179.122C432.502 179.122 433.106 178.482 433.106 177.203C433.106 175.924 432.502 175.284 431.292 175.284ZM438.552 175.284C437.342 175.284 436.737 175.924 436.737 177.203C436.737 178.482 437.342 179.122 438.552 179.122C439.762 179.122 440.367 178.482 440.367 177.203C440.367 175.924 439.762 175.284 438.552 175.284ZM444.948 175.284C443.738 175.284 443.134 175.924 443.134 177.203C443.134 178.482 443.738 179.122 444.948 179.122C446.158 179.122 446.764 178.482 446.764 177.203C446.764 175.924 446.158 175.284 444.948 175.284ZM452.209 175.284C450.999 175.284 450.394 175.924 450.394 177.203C450.394 178.482 450.999 179.122 452.209 179.122C453.419 179.122 454.024 178.482 454.024 177.203C454.024 175.924 453.419 175.284 452.209 175.284ZM458.519 175.284C457.309 175.284 456.704 175.924 456.704 177.203C456.704 178.482 457.309 179.122 458.519 179.122C459.729 179.122 460.334 178.482 460.334 177.203C460.334 175.924 459.729 175.284 458.519 175.284ZM472.176 175.284C470.966 175.284 470.36 175.924 470.36 177.203C470.36 178.482 470.966 179.122 472.176 179.122C473.386 179.122 473.991 178.482 473.991 177.203C473.991 175.924 473.386 175.284 472.176 175.284ZM465.866 175.284C464.57 175.284 463.965 175.924 463.965 177.294C463.965 179.761 466.99 179.487 467.422 176.929C467.595 175.832 467.163 175.284 465.866 175.284ZM544.438 175.284C545.129 175.284 545.647 175.924 545.647 176.655C545.647 178.391 543.227 179.304 542.622 177.751C542.017 176.198 542.709 175.284 544.438 175.284ZM558.095 175.284C558.7 175.285 559.305 175.925 559.305 176.655C559.304 178.391 556.797 179.304 556.192 177.751C555.674 176.198 556.366 175.284 558.095 175.284ZM530.693 175.284C531.385 175.284 532.077 175.924 532.077 176.746C532.077 177.477 531.385 178.117 530.693 178.117C530.37 178.117 530.078 178.005 529.846 177.824L529.329 176.505C529.434 175.802 529.994 175.284 530.693 175.284ZM535.707 176.655C535.707 174.919 538.473 175.193 539.078 176.929C539.251 177.66 538.646 178.117 537.522 178.117C536.399 178.117 535.707 177.569 535.707 176.655ZM571.492 175.284C572.27 175.284 572.875 175.924 572.875 176.746C572.875 177.477 572.27 178.117 571.492 178.117C570.801 178.117 570.195 177.477 570.195 176.746C570.195 175.924 570.801 175.284 571.492 175.284ZM585.149 175.284C585.841 175.284 586.532 175.924 586.532 176.746C586.532 177.477 585.841 178.117 585.149 178.117C584.371 178.117 583.766 177.477 583.766 176.746C583.766 175.924 584.372 175.284 585.149 175.284ZM598.72 175.284C599.498 175.284 600.102 175.924 600.103 176.746C600.103 177.477 599.498 178.117 598.72 178.117C598.028 178.117 597.423 177.477 597.423 176.746C597.423 175.924 598.028 175.284 598.72 175.284ZM549.277 176.746C549.278 175.01 551.957 175.01 552.303 176.746C552.389 177.203 551.698 177.843 550.834 178.025C549.883 178.208 549.277 177.751 549.277 176.746ZM540.634 171.447C541.412 171.447 542.016 172.269 542.017 173.365C542.017 174.462 541.412 175.284 540.634 175.284C539.942 175.284 539.338 174.462 539.338 173.365C539.338 172.269 539.943 171.447 540.634 171.447ZM554.291 171.447C555.069 171.447 555.674 172.269 555.674 173.365C555.674 174.462 555.069 175.284 554.291 175.284C553.513 175.284 552.908 174.462 552.908 173.365C552.908 172.269 553.513 171.447 554.291 171.447ZM576.765 169.528C577.37 167.062 579.271 167.061 579.876 169.437C580.135 170.442 581.087 171.538 582.124 171.812C584.198 172.361 583.939 174.645 581.691 175.102C580.654 175.284 580.136 174.736 580.136 173.457C580.136 172.087 579.53 171.447 578.32 171.447C577.11 171.447 576.505 172.086 576.505 173.365C576.505 174.462 575.9 175.284 575.122 175.284C574.431 175.284 573.826 174.462 573.826 173.365C573.826 172.269 574.345 171.447 575.036 171.447C575.728 171.447 576.505 170.625 576.765 169.528ZM591.978 160.849C592.928 160.849 593.793 161.488 593.793 162.311C593.793 163.133 592.928 163.772 591.978 163.772C590.768 163.772 590.162 164.412 590.162 165.69C590.162 166.787 590.767 167.609 591.545 167.609C592.323 167.609 593.188 168.432 593.447 169.437C593.707 170.441 594.743 171.538 595.78 171.812C597.855 172.361 597.509 174.645 595.262 175.102C594.225 175.284 593.793 174.736 593.793 173.457C593.793 172.087 593.188 171.447 591.978 171.447C590.768 171.447 590.162 172.086 590.162 173.365C590.162 174.462 589.557 175.284 588.779 175.284C588.001 175.284 587.396 174.462 587.396 173.365C587.397 172.269 588.002 171.447 588.779 171.447C589.557 171.447 590.162 170.625 590.162 169.528C590.162 168.432 589.557 167.609 588.779 167.609C588.001 167.609 587.396 166.787 587.396 165.69C587.397 164.594 588.002 163.772 588.779 163.772C589.471 163.772 590.162 163.133 590.162 162.311C590.162 161.488 590.94 160.849 591.978 160.849ZM564.75 167.609C565.269 167.609 565.96 168.432 566.22 169.437C566.479 170.441 567.516 171.538 568.553 171.812C570.627 172.361 570.282 174.645 568.034 175.102C566.997 175.284 566.565 174.736 566.565 173.457C566.565 172.087 565.96 171.447 564.75 171.447C563.453 171.447 562.935 172.087 562.935 173.457C562.935 174.736 562.416 175.284 561.379 175.102C559.132 174.645 558.786 172.361 560.86 171.812C561.898 171.538 562.935 170.442 563.194 169.437C563.454 168.432 564.145 167.609 564.75 167.609ZM533.892 171.447C534.324 171.447 534.93 171.904 535.275 172.452C536.226 174.097 534.065 175.924 532.854 174.645C531.818 173.457 532.423 171.448 533.892 171.447ZM547.463 171.447C547.895 171.448 548.5 171.904 548.846 172.452C549.796 174.097 547.721 175.924 546.425 174.645C545.388 173.457 546.08 171.447 547.463 171.447ZM601.414 174.854C600.663 174.515 600.103 173.908 600.103 173.365C600.103 172.726 600.881 171.995 601.831 171.721C602.19 171.617 602.548 171.41 602.869 171.138L601.414 174.854ZM527.366 171.491C527.993 171.674 528.446 172.416 528.446 173.365C528.446 173.604 528.416 173.829 528.363 174.036L527.366 171.491ZM438.552 167.609C437.342 167.61 436.737 168.249 436.737 169.528C436.737 170.807 437.342 171.447 438.552 171.447C439.762 171.447 440.367 170.807 440.367 169.528C440.367 168.249 439.762 167.609 438.552 167.609ZM452.209 167.609C450.999 167.609 450.394 168.249 450.394 169.528C450.394 170.807 450.999 171.447 452.209 171.447C453.419 171.447 454.024 170.807 454.024 169.528C454.024 168.249 453.419 167.609 452.209 167.609ZM458.519 167.609C457.309 167.609 456.704 168.249 456.704 169.528C456.704 170.807 457.309 171.447 458.519 171.447C459.729 171.447 460.334 170.807 460.334 169.528C460.334 168.249 459.729 167.609 458.519 167.609ZM465.78 167.609C464.57 167.609 463.965 168.249 463.965 169.528C463.965 170.807 464.57 171.447 465.78 171.447C466.99 171.447 467.595 170.807 467.595 169.528C467.595 168.249 466.99 167.61 465.78 167.609ZM472.176 167.609C470.966 167.609 470.36 168.249 470.36 169.528C470.36 170.807 470.966 171.447 472.176 171.447C473.386 171.447 473.991 170.807 473.991 169.528C473.991 168.249 473.386 167.609 472.176 167.609ZM545.737 74.7588C545.678 74.9787 545.647 75.2295 545.647 75.5117C545.647 76.3286 545.895 76.8835 546.389 77.1787L547.489 81.2686C547.481 81.2685 547.472 81.2686 547.463 81.2686C546.253 81.2686 545.648 81.9076 545.647 83.1865C545.647 84.4657 546.253 85.1055 547.463 85.1055C547.864 85.1054 548.197 85.0329 548.465 84.8926L553.291 102.824C553.039 103.098 552.908 103.557 552.908 104.201C552.908 105.377 553.354 106.013 554.191 106.17L555.393 110.634C554.397 109.674 552.908 109.996 552.908 111.602C552.908 112.424 552.13 113.338 551.093 113.612C550.056 113.886 549.278 114.617 549.278 115.348C549.278 115.987 548.5 116.81 547.463 117.084C546.426 117.358 545.648 118.271 545.647 119.094C545.647 119.916 546.426 120.556 547.463 120.556C548.5 120.556 549.278 119.916 549.278 119.186C549.278 118.363 549.883 117.724 550.661 117.724C551.439 117.724 552.303 118.363 552.562 119.186C553.254 121.104 556.279 121.012 556.279 119.003C556.279 118.181 555.502 117.266 554.551 116.992C552.39 116.353 552.476 114.252 554.724 113.612C555.353 113.422 555.769 113.157 555.978 112.806L559.402 125.53C559.338 125.757 559.305 126.017 559.305 126.312C559.305 127.138 559.558 127.696 560.063 127.988L561.045 131.634C560.312 131.749 559.783 131.322 559.563 130.24C559.304 129.144 558.526 128.23 557.921 128.23C557.23 128.23 556.539 127.408 556.279 126.312C555.674 124.028 553.34 123.845 552.562 125.946C552.217 126.951 552.562 127.682 553.858 128.048C555.933 128.596 555.933 131.611 553.858 131.611C551.957 131.612 551.957 134.717 553.945 135.266C555.847 135.814 556.279 138.829 554.378 138.829C553.686 138.829 552.908 139.652 552.648 140.748C552.389 141.844 551.525 142.667 550.834 142.667C550.056 142.667 549.278 143.58 549.019 144.585C548.759 145.681 547.981 146.413 547.376 146.321C545.388 145.865 545.388 149.062 547.376 149.61C548.413 149.976 549.277 150.798 549.277 151.62C549.277 152.351 550.056 153.265 551.093 153.539C553.081 154.087 552.735 157.01 550.661 157.011C549.97 157.011 549.278 157.925 549.019 158.93C548.759 160.026 548.068 160.848 547.463 160.849C546.858 160.849 546.166 160.026 545.906 158.93C545.647 157.925 544.956 157.011 544.265 157.011C543.66 157.011 542.881 156.189 542.622 155.093C542.363 154.088 541.498 153.174 540.634 153.174C539.683 153.174 539.251 152.625 539.424 151.529C539.597 150.616 540.375 149.885 541.152 149.885C541.844 149.885 542.449 148.971 542.449 147.966C542.449 146.767 541.993 146.13 541.082 146.13L540.705 146.147C539.793 146.149 539.338 145.522 539.338 144.494C539.338 143.306 539.943 142.667 541.239 142.667C542.622 142.667 542.967 142.21 542.535 141.113C542.19 140.108 542.622 139.469 543.746 139.104C544.697 138.829 545.647 137.824 545.906 136.819C546.166 135.814 547.031 134.992 547.809 134.992C549.883 134.992 549.623 132.434 547.463 131.794C546.426 131.52 545.648 130.606 545.647 129.784C545.647 128.962 545.042 128.23 544.351 128.23C543.659 128.23 542.881 127.408 542.622 126.312C542.103 124.028 539.683 123.845 538.905 125.946C538.56 126.951 538.992 127.682 540.202 128.048C541.326 128.322 542.017 129.145 541.844 129.967C541.671 130.789 541.239 131.428 540.721 131.246C539.597 130.881 538.474 133.164 538.992 134.626C539.252 135.266 540.029 135.631 540.721 135.266C541.585 134.992 542.017 135.449 542.017 136.819C542.016 137.915 541.412 138.829 540.721 138.829C540.029 138.829 539.252 139.652 538.992 140.748C538.733 141.844 537.955 142.667 537.177 142.667C536.485 142.667 535.621 143.58 535.361 144.585C535.102 145.681 534.41 146.413 533.719 146.321C531.731 145.865 531.818 149.062 533.806 149.61C534.843 149.976 535.707 150.798 535.707 151.62C535.707 152.351 536.485 153.265 537.522 153.539C538.473 153.813 539.338 154.727 539.338 155.549C539.338 156.371 539.943 157.011 540.721 157.011C541.585 157.011 542.017 157.651 541.844 158.747C541.584 159.661 540.98 160.3 540.461 160.209C538.646 159.844 538.473 163.589 540.288 164.046C542.622 164.685 542.536 167.244 540.202 167.884C539.165 168.158 538.473 168.981 538.56 169.62C538.732 170.26 538.127 170.991 537.263 171.265C536.139 171.447 535.707 170.99 535.707 169.62C535.707 168.25 535.102 167.609 533.892 167.609C532.682 167.609 532.077 168.249 532.077 169.528C532.077 170.625 531.471 171.447 530.693 171.447C529.916 171.447 529.311 170.625 529.311 169.528C529.311 168.432 529.916 167.609 530.607 167.609C531.299 167.609 532.077 166.695 532.336 165.69C532.595 164.594 533.374 163.864 533.979 163.955C534.67 164.138 535.188 163.407 535.188 162.311C535.188 161.214 534.67 160.575 533.979 160.666C533.374 160.849 532.595 160.118 532.336 159.021C532.077 157.925 531.298 157.011 530.693 157.011C530.002 157.01 529.311 156.189 529.052 155.093C528.792 154.088 527.927 153.174 527.149 153.174C524.989 153.173 525.335 150.25 527.582 149.61C529.829 149.062 529.484 145.864 527.236 146.321C524.989 146.687 525.248 143.033 527.495 142.393C528.532 142.119 529.31 141.205 529.311 140.383C529.311 138.19 531.213 138.464 531.731 140.748C531.991 141.844 533.028 142.667 533.979 142.667C535.102 142.667 535.707 142.027 535.707 140.748C535.707 139.469 535.102 138.829 533.892 138.829C531.472 138.829 531.472 135.905 533.892 135.266C535.966 134.717 535.966 131.611 533.892 131.611C531.818 131.611 531.731 129.144 533.719 128.596C536.225 127.865 536.312 124.394 533.892 124.394C532.682 124.394 532.077 125.033 532.077 126.312C532.077 127.408 531.472 128.23 530.78 128.23C530.089 128.23 529.311 127.408 529.052 126.312C528.792 125.307 527.927 124.394 527.149 124.394C526.285 124.394 525.681 125.216 525.681 126.312C525.681 127.499 526.285 128.23 527.149 128.23C528.014 128.23 528.447 128.87 528.188 129.967C528.015 130.88 527.322 131.52 526.804 131.429C526.199 131.246 525.681 131.794 525.681 132.616V134.718C525.681 135.174 526.199 135.448 526.804 135.448C527.409 135.448 528.101 136.271 528.273 137.185C528.446 138.098 528.014 138.829 527.236 138.829C526.458 138.829 525.68 139.652 525.421 140.748C525.161 141.844 524.297 142.667 523.52 142.667C522.742 142.667 522.05 143.306 522.05 144.037C522.05 144.768 521.272 145.59 520.235 145.864C519.198 146.138 518.42 146.961 518.42 147.783C518.42 148.514 519.198 149.428 520.235 149.702C521.272 149.976 522.05 150.89 522.05 151.712C522.05 152.534 521.272 153.174 520.235 153.174C520.222 153.174 520.208 153.175 520.195 153.175L515.291 140.647C515.394 140.156 515.339 139.684 515.049 139.377C514.933 139.263 514.809 139.166 514.681 139.087L513.232 135.388C514.03 135.144 514.789 134.434 514.789 133.529C514.789 132.053 512.851 131.238 511.899 131.983L507.378 120.435C508.908 119.861 508.465 117.385 506.405 116.901C506.251 116.876 506.11 116.866 505.981 116.868L501.482 105.375C502.009 104.503 501.692 103.198 500.437 102.703L499.07 99.2129C499.547 99.3898 500.094 99.4076 500.614 99.1758C501.478 98.8103 501.824 97.9881 501.479 97.166C500.895 95.4906 498.941 95.1762 498.028 96.5527L493.527 85.0566C494.391 84.8887 494.822 84.2668 494.822 83.1865C494.822 81.9077 494.218 81.2687 493.008 81.2686C492.657 81.2686 492.357 81.3232 492.108 81.4307L487.099 68.6338H497.949C498.146 69.5165 498.908 70.2129 499.836 70.2129C500.679 70.2128 501.521 69.5165 501.642 68.6338H511.604C511.898 69.3824 512.109 70.1383 512.109 70.3037C512.109 71.4001 514.617 70.5784 515.049 69.3906C515.158 69.1156 515.231 68.8633 515.267 68.6338H525.687C525.683 68.7016 525.681 68.7716 525.681 68.8428C525.681 70.2129 526.2 70.7608 527.15 70.5781C528.231 70.3582 528.831 69.4829 528.923 68.6338H539.34C539.339 68.6721 539.338 68.7113 539.338 68.751C539.338 70.2127 539.77 70.7608 540.894 70.5781C541.758 70.3953 542.449 69.5731 542.449 68.751C542.449 68.7122 542.446 68.673 542.442 68.6338H544.089L545.737 74.7588ZM545.906 165.69C546.511 163.224 548.414 163.224 549.019 165.6C549.278 166.605 550.229 167.7 551.266 167.975C553.34 168.523 553.081 170.808 550.834 171.265C549.797 171.447 549.277 170.899 549.277 169.62C549.277 168.25 548.673 167.61 547.463 167.609C546.253 167.609 545.647 168.249 545.647 169.528C545.647 170.625 545.042 171.447 544.265 171.447C543.573 171.447 542.968 170.625 542.968 169.528C542.968 168.432 543.486 167.61 544.178 167.609C544.869 167.609 545.647 166.787 545.906 165.69ZM637.834 81.8271C637.533 81.4554 637.058 81.2686 636.406 81.2686C635.196 81.2686 634.591 81.9076 634.591 83.1865C634.591 84.4657 635.196 85.1055 636.406 85.1055C636.456 85.1055 636.505 85.1018 636.553 85.0996L635.356 88.1562C634.846 88.34 634.591 88.8953 634.591 89.8564C634.591 89.9392 634.592 90.0189 634.597 90.0957L629.765 102.438C629.185 102.26 628.496 102.421 627.936 103.013C626.934 104.071 627.236 105.567 628.35 106.052L623.821 117.619C623.531 117.377 623.189 117.186 622.835 117.084C621.798 116.81 621.021 115.987 621.021 115.256C621.021 114.525 621.798 113.886 622.835 113.886C624.045 113.886 624.65 113.246 624.65 111.967C624.65 110.688 624.045 110.049 622.922 110.049C621.971 110.049 620.934 110.871 620.675 111.967C620.416 113.063 619.724 113.886 619.205 113.886C618.6 113.886 617.909 113.063 617.649 111.967C617.39 110.871 616.352 110.049 615.401 110.049C614.365 110.049 613.76 110.688 613.76 111.967C613.76 113.246 614.364 113.886 615.574 113.886C616.525 113.886 617.389 114.525 617.39 115.256C617.39 115.987 616.525 116.81 615.574 117.084C614.537 117.358 613.76 118.272 613.76 119.094C613.76 119.916 614.451 120.555 615.574 120.556C616.525 120.556 617.389 119.916 617.39 119.186C617.39 118.363 618.168 117.724 619.205 117.724C620.156 117.724 621.021 118.363 621.021 119.186C621.021 119.878 621.719 120.487 622.675 120.549L615.55 138.748C615.026 138.516 614.624 137.804 614.624 136.91C614.624 135.814 615.143 135.083 615.748 135.266C616.353 135.357 616.958 134.535 617.131 133.256C617.39 131.885 617.044 131.246 616.353 131.337C615.661 131.52 615.056 130.88 614.797 129.967C614.624 128.87 615.057 128.23 615.921 128.23C616.785 128.23 617.39 127.499 617.39 126.312C617.39 125.033 616.785 124.394 615.575 124.394C614.365 124.394 613.76 125.033 613.76 126.312C613.76 127.408 613.155 128.23 612.377 128.23C611.599 128.23 610.993 127.408 610.993 126.312C610.993 125.033 610.389 124.394 609.179 124.394C607.969 124.394 607.363 125.033 607.363 126.221C607.363 127.226 608.142 128.322 609.179 128.596C610.216 128.87 610.993 129.601 610.993 130.149C610.993 130.789 610.216 131.52 609.179 131.794C608.141 132.068 607.363 132.891 607.363 133.53C607.364 134.261 608.142 134.992 609.179 135.266C610.216 135.54 610.993 136.454 610.993 137.276C610.993 138.19 610.216 138.829 609.179 138.829C607.969 138.829 607.363 139.469 607.363 140.748C607.363 142.027 607.968 142.667 609.092 142.667C610.043 142.667 610.994 141.844 611.253 140.748C611.512 139.652 612.204 138.829 612.723 138.829C613.241 138.829 613.76 139.652 613.76 140.748C613.76 141.844 613.154 142.667 612.463 142.667C611.771 142.667 610.994 143.489 610.734 144.585C610.475 145.681 609.784 146.504 609.179 146.504C608.574 146.504 607.882 145.681 607.623 144.585C607.364 143.489 606.413 142.667 605.462 142.667C604.338 142.667 603.733 143.306 603.733 144.585C603.733 145.864 604.338 146.504 605.548 146.504C606.585 146.504 607.363 147.144 607.363 147.966C607.363 150.159 603.992 149.702 603.474 147.418C603.214 146.322 602.609 145.591 602.091 145.773C601.572 145.865 601.14 145.682 601.14 145.316C600.88 143.307 601.14 142.667 602.35 142.667C603.128 142.667 603.733 141.844 603.733 140.748C603.733 139.652 603.128 138.829 602.437 138.829C600.362 138.829 599.844 135.814 601.918 135.266C603.992 134.717 604.424 132.068 602.437 132.068C600.362 132.068 599.844 129.144 601.918 128.596C604.338 127.865 604.338 124.394 601.918 124.394C600.708 124.394 600.103 125.033 600.103 126.221C600.102 127.317 599.325 128.322 598.201 128.596C597.164 128.87 596.559 129.601 596.904 130.149C597.25 130.698 596.731 131.154 595.607 131.154C594.398 131.154 593.793 131.794 593.793 133.073C593.793 134.352 594.398 134.992 595.607 134.992C596.558 134.992 597.423 134.352 597.423 133.53C597.423 132.799 598.028 132.068 598.72 132.068C600.794 132.068 600.362 134.809 598.287 135.448C597.25 135.814 596.732 136.545 596.991 137.002C597.337 137.55 596.731 138.19 595.78 138.464C594.743 138.738 593.707 139.834 593.447 140.839C593.188 141.844 592.323 142.667 591.545 142.667C590.767 142.667 590.162 143.306 590.162 144.037C590.162 144.768 589.471 145.59 588.779 145.864C587.828 146.23 587.396 145.864 587.396 144.585C587.397 143.489 588.001 142.667 588.779 142.667C589.557 142.667 590.162 141.844 590.162 140.748C590.162 139.652 589.558 138.829 588.866 138.829C586.705 138.829 586.273 135.814 588.261 135.266C589.384 134.992 590.162 133.987 590.162 132.891C590.162 131.52 589.644 131.154 588.779 131.52C587.828 131.885 587.396 131.428 587.396 130.149C587.396 129.144 588.001 128.231 588.779 128.23C589.557 128.23 590.162 127.408 590.162 126.312C590.162 125.033 589.557 124.394 588.348 124.394C587.138 124.394 586.532 125.033 586.532 126.312C586.532 127.408 585.927 128.23 585.235 128.23C584.544 128.231 583.766 129.144 583.507 130.24C583.161 131.519 582.556 131.885 581.605 131.52C580.482 131.063 580.136 131.52 580.136 133.347C580.136 135.265 580.482 135.631 581.951 135.266C582.988 134.991 583.766 134.169 583.766 133.438C583.766 132.708 584.372 132.068 585.149 132.068C585.841 132.069 586.532 132.799 586.532 133.53C586.532 134.352 585.927 134.992 585.235 134.992C584.544 134.992 583.766 135.814 583.507 136.91C583.248 138.006 582.383 138.829 581.605 138.829C580.828 138.829 580.136 139.561 580.136 140.383C580.135 141.205 579.357 142.119 578.32 142.393C577.283 142.667 576.505 143.672 576.505 144.677C576.505 145.864 577.11 146.504 578.32 146.504C579.358 146.504 580.136 147.144 580.136 147.966C580.136 148.697 579.358 149.336 578.32 149.336C577.11 149.336 576.505 149.976 576.505 151.255C576.505 152.454 575.974 153.091 574.91 153.166L574.471 153.182C573.407 153.256 572.875 153.893 572.875 155.093C572.875 156.189 572.27 157.011 571.578 157.011C570.887 157.011 570.109 157.925 569.85 158.93C569.59 160.026 568.898 160.849 568.38 160.849C567.775 160.848 567.083 160.026 566.824 158.93C566.565 157.925 565.528 157.011 564.577 157.011C563.54 157.011 562.935 157.742 562.935 158.93C562.935 160.209 563.54 160.849 564.75 160.849C565.701 160.849 566.565 161.488 566.565 162.311C566.565 163.133 565.701 163.772 564.75 163.772C563.54 163.772 562.935 164.412 562.935 165.69C562.935 166.97 562.329 167.609 561.119 167.609C559.909 167.61 559.305 168.249 559.305 169.528C559.305 170.624 558.7 171.447 557.922 171.447C557.144 171.447 556.538 170.625 556.538 169.528C556.538 168.432 557.143 167.609 557.835 167.609C558.526 167.609 559.304 166.695 559.563 165.69C559.823 164.594 560.515 163.864 561.206 163.955C563.28 164.503 563.194 160.849 561.119 160.209C560.082 159.935 559.305 159.113 559.305 158.382C559.305 157.651 558.699 157.011 558.008 157.011C557.316 157.011 556.539 156.189 556.279 155.093C556.02 154.088 555.156 153.174 554.378 153.174C552.303 153.174 552.563 150.25 554.724 149.702C555.761 149.428 556.538 148.605 556.538 147.874C556.538 147.143 557.144 146.504 557.922 146.504C558.613 146.504 559.305 147.326 559.305 148.331C559.305 149.701 559.737 150.067 561.119 149.702C562.07 149.428 562.934 148.514 562.935 147.783C562.935 146.961 562.07 146.138 561.119 145.864C560.082 145.59 559.305 144.768 559.305 144.037C559.305 143.306 558.613 142.667 557.922 142.667C557.144 142.667 556.538 141.844 556.538 140.748C556.538 139.652 557.143 138.829 557.835 138.829C558.526 138.829 559.304 138.007 559.563 136.91C559.823 135.814 560.687 134.993 561.465 134.992C561.628 134.992 561.783 134.962 561.926 134.906L563.984 142.555C563.285 142.322 562.935 141.72 562.935 140.748C562.935 139.469 562.33 138.829 561.12 138.829C559.91 138.829 559.305 139.469 559.305 140.748C559.305 142.027 559.91 142.667 561.12 142.667C562.33 142.667 562.935 143.306 562.935 144.585C562.935 145.864 563.54 146.504 564.75 146.504C564.853 146.504 564.954 146.513 565.054 146.527L565.279 147.365L565.475 146.632C566.099 146.858 566.565 147.362 566.565 147.966C566.565 148.697 565.701 149.336 564.75 149.336C563.54 149.336 562.935 149.976 562.935 151.255C562.935 152.454 562.403 153.091 561.34 153.166L560.9 153.182C559.837 153.256 559.305 153.893 559.305 155.093C559.305 156.372 559.91 157.011 560.947 157.011C561.898 157.011 562.935 156.189 563.194 155.093C563.454 154.088 564.145 153.174 564.75 153.174C565.269 153.174 565.96 154.088 566.22 155.093C566.479 156.189 567.516 157.011 568.467 157.011C569.59 157.011 570.195 156.372 570.195 155.093C570.195 153.814 569.591 153.174 568.381 153.174C567.257 153.174 566.565 152.534 566.565 151.712C566.565 150.89 567.344 149.976 568.381 149.702C569.332 149.428 570.195 148.605 570.195 147.874C570.196 147.143 570.801 146.504 571.492 146.504C572.27 146.504 572.875 147.144 572.875 147.966C572.875 148.788 573.653 149.336 574.776 149.336C576.073 149.336 576.506 148.879 576.333 147.691C576.16 146.778 575.555 146.047 574.863 146.047C574.258 146.047 573.826 145.682 573.826 145.316V143.58C573.826 143.123 574.431 142.667 575.122 142.667C575.9 142.667 576.506 141.844 576.506 140.748C576.506 139.652 575.9 138.829 575.122 138.829C574.344 138.829 573.826 138.007 573.826 136.819C573.826 135.449 574.172 134.992 575.122 135.357C576.159 135.723 576.506 135.266 576.506 133.53C576.506 132.252 576.16 131.247 575.814 131.246C575.469 131.337 574.604 131.337 573.999 131.246C572.53 131.155 573.653 128.23 575.209 128.23C575.9 128.23 576.506 127.408 576.506 126.312C576.506 125.033 575.9 124.394 574.69 124.394C573.48 124.394 572.875 125.033 572.875 126.312C572.875 127.408 572.27 128.23 571.578 128.23C570.887 128.231 570.109 129.144 569.85 130.24C569.816 130.404 569.775 130.552 569.729 130.687L574.221 113.847C574.366 113.871 574.522 113.886 574.69 113.886C575.727 113.886 576.505 114.525 576.505 115.256C576.505 115.987 575.728 116.81 574.69 117.084C573.653 117.358 572.875 118.271 572.875 119.094C572.875 119.916 573.653 120.556 574.69 120.556C575.727 120.555 576.505 119.916 576.505 119.186C576.505 118.363 577.283 117.724 578.32 117.724C579.358 117.724 580.136 118.363 580.136 119.186C580.136 119.916 580.914 120.556 581.951 120.556C582.988 120.555 583.766 119.916 583.766 119.094C583.766 118.272 582.988 117.358 581.951 117.084C580.914 116.81 580.136 115.987 580.136 115.256C580.136 114.525 580.914 113.886 581.951 113.886C583.161 113.886 583.766 113.246 583.766 111.967C583.766 110.688 583.161 110.049 582.037 110.049C581.086 110.049 580.135 110.871 579.876 111.967C579.617 113.063 578.925 113.886 578.32 113.886C577.715 113.886 577.024 113.063 576.765 111.967C576.561 111.105 575.928 110.414 575.205 110.157L580.337 90.9219C580.599 91.4899 581.116 91.7753 581.864 91.7754C584.025 91.7754 583.853 88.5771 581.605 88.1201C581.416 88.0838 581.244 88.0783 581.09 88.1006L581.889 85.1025C581.909 85.1029 581.93 85.1055 581.951 85.1055C583.161 85.1054 583.767 84.4656 583.767 83.1865C583.767 82.2867 583.466 81.7042 582.867 81.4375L586.283 68.6338H593.798C593.795 68.7012 593.793 68.7705 593.793 68.8418C593.793 71.2865 596.677 71.0392 597.233 68.6338H607.367C607.366 68.6722 607.363 68.7113 607.363 68.751C607.363 70.0301 607.969 70.6699 609.179 70.6699C610.389 70.6699 610.994 70.03 610.994 68.751C610.994 68.7113 610.991 68.6722 610.99 68.6338H621.024C621.023 68.6722 621.021 68.7113 621.021 68.751C621.021 70.0301 621.626 70.6699 622.836 70.6699C624.046 70.6698 624.65 70.03 624.65 68.751C624.65 68.7113 624.648 68.6722 624.646 68.6338H634.595C634.594 68.6722 634.591 68.7113 634.591 68.751C634.591 70.0301 635.196 70.6699 636.406 70.6699C637.616 70.6698 638.221 70.0299 638.221 68.751C638.221 68.7113 638.218 68.6722 638.217 68.6338H643L637.834 81.8271ZM571.492 167.609C572.27 167.61 572.875 168.432 572.875 169.528C572.875 170.625 572.27 171.447 571.492 171.447C570.801 171.447 570.195 170.625 570.195 169.528C570.195 168.432 570.801 167.609 571.492 167.609ZM585.149 167.609C585.927 167.61 586.532 168.432 586.532 169.528C586.532 170.625 585.927 171.447 585.149 171.447C584.371 171.447 583.766 170.625 583.766 169.528C583.766 168.432 584.371 167.609 585.149 167.609ZM598.72 167.609C599.498 167.609 600.103 168.432 600.103 169.528C600.103 170.625 599.498 171.447 598.72 171.447C598.028 171.447 597.423 170.625 597.423 169.528C597.423 168.432 598.028 167.609 598.72 167.609ZM523.865 153.174C524.47 153.174 525.162 154.088 525.421 155.093C525.68 156.189 526.458 157.011 527.236 157.011C528.014 157.011 528.36 157.742 528.188 158.747C528.015 159.661 527.409 160.3 526.891 160.209C526.286 160.118 525.68 160.848 525.421 161.854C525.075 163.315 525.421 163.772 526.631 163.772C527.841 163.772 528.446 164.412 528.446 165.69C528.446 166.787 527.841 167.609 527.149 167.609C526.788 167.61 526.403 167.836 526.081 168.207L521.484 156.466C521.875 156.123 522.179 155.643 522.31 155.093C522.569 154.088 523.26 153.174 523.865 153.174ZM605.548 160.849C606.023 160.849 606.443 160.984 606.76 161.2L605.75 163.778C605.685 163.774 605.617 163.772 605.548 163.772C604.338 163.773 603.734 164.412 603.733 165.69C603.733 167.518 602.004 168.341 600.794 167.062C599.93 166.148 601.14 163.772 602.437 163.772C603.128 163.772 603.733 163.133 603.733 162.311C603.733 161.488 604.511 160.849 605.548 160.849ZM553.513 164.412C554.636 163.224 555.674 163.772 555.674 165.69C555.674 166.787 555.069 167.609 554.291 167.609C552.908 167.609 552.389 165.6 553.513 164.412ZM578.32 153.174C578.925 153.174 579.617 154.088 579.876 155.093C580.135 156.189 580.914 157.011 581.519 157.011C583.074 157.011 584.025 158.655 583.334 159.935C582.556 161.214 580.136 160.026 580.136 158.382C580.136 157.651 579.358 157.011 578.32 157.011C577.11 157.011 576.505 157.651 576.505 158.93C576.505 160.209 577.11 160.849 578.32 160.849C579.358 160.849 580.136 161.488 580.136 162.311C580.136 163.133 579.357 163.772 578.32 163.772C577.11 163.773 576.505 164.412 576.505 165.69C576.505 166.787 575.9 167.609 575.122 167.609C574.431 167.609 573.826 166.787 573.826 165.69C573.826 164.594 574.431 163.772 575.209 163.772C576.073 163.772 576.505 163.133 576.332 162.128C576.073 161.214 575.468 160.483 574.863 160.666C574.258 160.757 573.826 160.026 573.826 158.93C573.826 157.925 574.345 157.011 575.036 157.011C575.727 157.011 576.505 156.189 576.765 155.093C577.024 154.088 577.715 153.174 578.32 153.174ZM566.824 165.234C567.516 163.316 570.195 163.316 570.195 165.234C570.195 166.787 567.775 168.249 566.824 167.244C566.565 166.97 566.565 166.057 566.824 165.234ZM598.72 160.849C599.498 160.849 600.103 161.58 600.103 162.311C600.102 163.133 599.497 163.772 598.806 163.772C598.114 163.773 597.336 164.594 597.077 165.69C596.559 167.975 593.793 168.249 593.793 166.057C593.793 165.234 594.57 164.32 595.607 164.046C596.558 163.772 597.423 162.95 597.423 162.219C597.423 161.488 598.028 160.849 598.72 160.849ZM580.741 164.412C581.692 163.407 583.334 164.229 583.334 165.782C583.334 166.513 582.556 167.244 581.691 167.427C580.136 167.701 579.531 165.691 580.741 164.412ZM460.075 163.224C460.68 161.488 459.47 160.026 457.828 160.574C456.272 161.214 456.445 163.407 458.087 164.138C458.951 164.503 459.729 164.046 460.075 163.224ZM438.552 159.935C438.033 159.935 437.342 160.665 436.996 161.487C436.391 163.223 438.553 165.051 439.763 163.771C440.799 162.766 439.848 159.935 438.552 159.935ZM529.052 161.488C530.089 160.392 532.077 160.849 532.077 162.311C532.077 163.133 531.471 163.772 530.693 163.772C529.224 163.772 528.188 162.402 529.052 161.488ZM544.265 160.849C545.042 160.849 545.647 161.58 545.647 162.311C545.647 163.133 545.042 163.772 544.265 163.772C543.573 163.772 542.968 163.133 542.968 162.311C542.968 161.58 543.573 160.849 544.265 160.849ZM556.279 161.488C557.317 160.392 559.305 160.849 559.305 162.311C559.305 163.133 558.7 163.772 557.922 163.772C556.452 163.772 555.415 162.402 556.279 161.488ZM569.85 161.488C570.973 160.392 572.875 160.849 572.875 162.311C572.875 163.133 572.27 163.772 571.578 163.772C570.023 163.772 568.986 162.402 569.85 161.488ZM585.149 160.849C585.841 160.849 586.532 161.58 586.532 162.311C586.532 163.133 585.841 163.772 585.149 163.772C584.372 163.772 583.766 163.133 583.766 162.311C583.766 161.58 584.371 160.849 585.149 160.849ZM453.852 162.127C453.506 160.391 451.95 159.569 450.999 160.574C449.703 161.945 450.394 163.771 452.209 163.771C453.506 163.771 454.024 163.223 453.852 162.127ZM467.422 162.219C466.99 159.843 463.965 159.66 463.965 161.944C463.965 163.132 464.57 163.771 465.866 163.771C467.076 163.771 467.595 163.224 467.422 162.219ZM473.991 162.401C473.991 161.031 471.745 159.752 470.88 160.665C469.67 161.944 470.447 163.771 472.176 163.771C473.127 163.771 473.991 163.132 473.991 162.401ZM549.277 162.311C549.277 160.666 551.957 160.666 552.303 162.311C552.389 162.859 551.698 163.407 550.834 163.59C549.883 163.773 549.277 163.315 549.277 162.311ZM591.978 153.174C592.496 153.174 593.188 154.088 593.447 155.093C593.707 156.189 594.484 157.011 595.176 157.011C596.645 157.011 597.682 158.656 596.991 159.935C596.213 161.214 593.793 160.026 593.793 158.382C593.793 157.651 592.928 157.011 591.978 157.011C590.94 157.011 590.162 157.651 590.162 158.382C590.162 159.113 589.471 159.934 588.779 160.3C587.828 160.665 587.396 160.209 587.396 158.93C587.397 157.925 588.002 157.011 588.693 157.011C589.385 157.01 590.163 156.189 590.422 155.093C590.681 154.088 591.372 153.174 591.978 153.174ZM603.992 155.093C604.597 152.626 606.498 152.717 607.104 155.093C607.289 155.878 607.831 156.521 608.473 156.823L607.633 158.969C607.63 158.956 607.626 158.943 607.623 158.93C607.104 156.828 603.733 156.28 603.733 158.382C603.733 160.3 601.226 161.031 600.621 159.295C600.276 158.382 600.708 157.651 601.831 157.377C602.782 157.103 603.733 156.098 603.992 155.093ZM554.291 157.011C555.242 157.011 555.674 157.651 555.501 158.747C555.069 160.757 553.513 160.666 553.081 158.564C552.908 157.651 553.427 157.011 554.291 157.011ZM76.7178 113.658C72.334 113.658 68.407 114.665 64.9365 116.678C61.6486 118.691 58.9995 121.437 56.9902 124.914C54.9811 128.391 53.9766 132.326 53.9766 136.719C53.9766 141.111 54.8903 145.046 56.7168 148.523C58.7261 152.001 61.466 154.747 64.9365 156.76C68.4071 158.773 72.2432 159.78 76.4443 159.78C83.2025 159.78 88.5909 157.675 92.6094 153.466C96.8106 149.073 98.9111 143.491 98.9111 136.719C98.9111 132.143 97.9983 128.208 96.1719 124.914C94.3453 121.437 91.6962 118.691 88.2256 116.678C84.9377 114.664 81.1016 113.658 76.7178 113.658ZM444.948 153.174C443.738 153.174 443.134 153.814 443.134 155.093C443.134 156.372 443.738 157.011 444.948 157.011C446.158 157.011 446.764 156.372 446.764 155.093C446.764 153.814 446.158 153.174 444.948 153.174ZM458.519 153.174C457.309 153.174 456.704 153.814 456.704 155.093C456.704 156.372 457.309 157.011 458.519 157.011C459.729 157.011 460.334 156.372 460.334 155.093C460.334 153.814 459.729 153.174 458.519 153.174ZM472.176 153.174C470.966 153.174 470.36 153.814 470.36 155.093C470.36 156.372 470.966 157.011 472.176 157.011C473.386 157.011 473.991 156.372 473.991 155.093C473.991 153.814 473.386 153.174 472.176 153.174ZM533.893 153.174C532.682 153.174 532.077 153.814 532.077 155.093C532.077 156.372 532.683 157.011 533.893 157.011C535.102 157.011 535.707 156.371 535.707 155.093C535.707 153.814 535.102 153.174 533.893 153.174ZM547.463 153.174C546.253 153.174 545.647 153.814 545.647 155.093C545.648 156.372 546.253 157.011 547.463 157.011C548.673 157.011 549.278 156.372 549.278 155.093C549.278 153.814 548.673 153.174 547.463 153.174ZM585.149 146.504C585.841 146.504 586.532 147.144 586.532 147.966C586.532 148.697 587.31 149.336 588.348 149.336C589.385 149.336 590.162 148.696 590.162 147.874C590.162 146.961 590.768 146.504 591.632 146.687C593.879 147.143 594.225 149.336 591.978 149.336C590.843 149.336 590.24 149.898 590.169 151.022L590.155 151.487C590.084 152.611 589.482 153.174 588.348 153.174C587.138 153.174 586.532 153.814 586.532 155.093C586.532 156.189 585.927 157.01 585.149 157.011C584.372 157.011 583.766 156.189 583.766 155.093C583.766 153.814 583.161 153.174 581.951 153.174C580.914 153.174 580.136 152.534 580.136 151.712C580.136 150.89 580.914 149.976 581.951 149.702C582.988 149.428 583.766 148.605 583.766 147.874C583.766 147.143 584.372 146.504 585.149 146.504ZM597.077 148.423C597.682 146.23 600.102 145.773 600.103 147.874C600.103 148.605 600.881 149.428 601.918 149.702C602.955 149.976 603.733 150.89 603.733 151.712C603.733 152.534 602.955 153.174 601.918 153.174C600.708 153.174 600.103 153.814 600.103 155.093C600.102 156.189 599.497 157.011 598.806 157.011C598.114 157.01 597.336 156.189 597.077 155.093C596.818 154.088 595.953 153.174 595.089 153.174C594.138 153.174 593.707 152.625 593.966 151.529C594.139 150.616 594.83 149.976 595.435 150.158C596.126 150.25 596.818 149.519 597.077 148.423ZM612.377 146.504C612.421 146.504 612.466 146.507 612.51 146.512L609.867 153.263C609.665 153.205 609.436 153.174 609.179 153.174C608.141 153.174 607.363 152.534 607.363 151.712C607.363 150.89 608.141 149.976 609.179 149.702C610.216 149.428 610.993 148.605 610.993 147.874C610.993 147.143 611.599 146.504 612.377 146.504ZM458.433 146.504C457.223 146.504 456.704 147.052 456.877 148.057C457.309 150.432 460.334 150.615 460.334 148.331C460.334 147.143 459.729 146.504 458.433 146.504ZM446.764 147.966C446.764 146.138 443.998 145.316 443.393 146.961C443.133 147.692 443.22 148.788 443.479 149.336C444.257 150.524 446.764 149.519 446.764 147.966ZM378.479 147.783C378.133 146.047 376.577 145.134 375.626 146.139C374.33 147.509 375.108 149.336 376.923 149.336C378.133 149.336 378.651 148.879 378.479 147.783ZM432.934 147.783C432.588 146.047 431.032 145.134 430.081 146.139C428.785 147.509 429.563 149.336 431.378 149.336C432.588 149.336 433.106 148.879 432.934 147.783ZM453.852 147.783C453.506 146.047 451.95 145.134 450.999 146.139C449.703 147.509 450.394 149.336 452.209 149.336C453.505 149.336 454.024 148.879 453.852 147.783ZM466.126 146.139C464.052 145.316 463.965 145.316 463.965 147.417C463.965 148.696 464.57 149.336 465.78 149.336C467.941 149.336 468.2 146.961 466.126 146.139ZM473.991 148.057C473.991 146.595 471.744 145.316 470.88 146.229C469.67 147.509 470.447 149.336 472.176 149.336C473.127 149.336 473.991 148.788 473.991 148.057ZM522.05 147.874C522.05 146.139 524.902 146.413 525.421 148.148C525.68 148.879 525.076 149.336 523.952 149.336C522.828 149.336 522.05 148.788 522.05 147.874ZM535.707 147.874C535.707 146.139 538.473 146.413 539.078 148.148C539.251 148.879 538.646 149.336 537.522 149.336C536.399 149.336 535.707 148.788 535.707 147.874ZM549.277 147.874C549.278 146.139 552.13 146.413 552.648 148.148C552.908 148.879 552.303 149.336 551.18 149.336C550.056 149.336 549.277 148.788 549.277 147.874ZM585.149 138.829C585.927 138.829 586.532 139.652 586.532 140.748C586.532 141.844 585.927 142.667 585.235 142.667C584.544 142.667 583.766 143.489 583.507 144.585C583.161 145.864 582.556 146.321 581.605 145.956C579.531 145.134 579.79 142.667 581.951 142.667C583.161 142.667 583.766 142.027 583.766 140.748C583.766 139.652 584.371 138.829 585.149 138.829ZM554.291 142.667C554.982 142.667 555.674 143.489 555.674 144.585C555.674 145.864 555.155 146.23 554.291 145.864C553.513 145.59 552.908 144.768 552.908 144.037C552.908 143.306 553.513 142.667 554.291 142.667ZM598.72 138.829C599.498 138.829 600.103 139.652 600.103 140.748C600.102 141.844 599.497 142.667 598.806 142.667C598.114 142.667 597.25 143.489 596.904 144.494C596.559 145.682 595.867 146.23 595.089 145.864C593.101 145.042 593.447 142.667 595.607 142.667C596.818 142.667 597.423 142.027 597.423 140.748C597.423 139.652 598.028 138.829 598.72 138.829ZM571.492 138.829C572.27 138.829 572.875 139.652 572.875 140.748C572.875 141.844 572.27 142.667 571.492 142.667C570.801 142.667 570.196 143.306 570.195 144.128C570.195 144.859 569.331 145.499 568.381 145.499C567.344 145.499 566.565 144.859 566.565 144.128C566.565 143.869 566.479 143.628 566.331 143.419L566.756 141.826C567.047 142.32 567.589 142.667 568.381 142.667C569.591 142.667 570.195 142.027 570.195 140.748C570.195 139.652 570.801 138.829 571.492 138.829ZM438.552 138.829C437.342 138.829 436.737 139.469 436.737 140.748C436.737 142.027 437.342 142.666 438.552 142.666C439.762 142.666 440.367 142.027 440.367 140.748C440.367 139.469 439.762 138.829 438.552 138.829ZM452.209 138.829C450.999 138.829 450.394 139.469 450.394 140.748C450.394 142.027 450.999 142.666 452.209 142.666C453.419 142.666 454.024 142.027 454.024 140.748C454.024 139.469 453.419 138.829 452.209 138.829ZM465.78 138.829C464.57 138.829 463.965 139.469 463.965 140.748C463.965 142.027 464.57 142.666 465.78 142.666C466.99 142.666 467.595 142.027 467.595 140.748C467.595 139.469 466.99 138.829 465.78 138.829ZM520.235 138.829C519.025 138.829 518.42 139.469 518.42 140.748C518.42 142.027 519.025 142.666 520.235 142.666C521.445 142.666 522.05 142.027 522.05 140.748C522.05 139.469 521.445 138.829 520.235 138.829ZM547.463 138.829C546.253 138.829 545.647 139.469 545.647 140.748C545.648 142.027 546.253 142.666 547.463 142.666C548.673 142.666 549.278 142.027 549.278 140.748C549.278 139.469 548.673 138.829 547.463 138.829ZM568.54 135.139C570.008 135.748 570.105 138.079 568.381 138.555C568.054 138.638 567.769 138.771 567.527 138.937L568.54 135.139ZM530.693 132.068C531.385 132.068 532.077 132.799 532.077 133.53C532.077 134.352 531.385 134.992 530.693 134.992C529.916 134.992 529.311 134.352 529.311 133.53C529.311 132.799 529.916 132.069 530.693 132.068ZM544.265 132.068C545.042 132.069 545.647 132.799 545.647 133.53C545.647 134.352 545.042 134.992 544.265 134.992C543.573 134.992 542.968 134.352 542.968 133.53C542.968 132.799 543.573 132.068 544.265 132.068ZM557.921 132.068C558.612 132.068 559.305 132.799 559.305 133.53C559.305 134.352 558.612 134.992 557.921 134.992C557.143 134.992 556.538 134.352 556.538 133.53C556.538 132.799 557.143 132.069 557.921 132.068ZM571.492 132.068C572.27 132.068 572.875 132.799 572.875 133.53C572.875 134.352 572.27 134.992 571.492 134.992C570.801 134.992 570.195 134.352 570.195 133.53C570.195 132.799 570.801 132.068 571.492 132.068ZM612.377 132.068C613.068 132.069 613.76 132.799 613.76 133.53C613.76 134.352 613.068 134.992 612.377 134.992C611.599 134.992 610.993 134.352 610.993 133.53C610.993 132.799 611.599 132.068 612.377 132.068ZM440.194 133.347C439.849 131.611 438.293 130.789 437.342 131.794C436.046 133.164 436.824 134.991 438.639 134.991C439.849 134.991 440.367 134.443 440.194 133.347ZM452.209 132.067C451.172 132.067 450.394 132.707 450.394 133.529C450.394 134.352 451.172 134.991 452.209 134.991C453.16 134.991 454.024 134.352 454.024 133.529C454.024 132.707 453.16 132.067 452.209 132.067ZM465.78 131.794C464.397 131.428 463.965 131.794 463.965 133.164C463.965 134.352 464.57 134.991 465.78 134.991C466.817 134.991 467.595 134.352 467.595 133.621C467.595 132.89 466.817 132.068 465.78 131.794ZM522.051 133.621C522.051 132.251 519.803 130.971 518.938 131.885C517.728 133.164 518.507 134.991 520.235 134.991C521.272 134.991 522.051 134.352 522.051 133.621ZM458.519 124.394C457.309 124.394 456.704 125.033 456.704 126.312C456.704 127.591 457.309 128.23 458.519 128.23C459.729 128.23 460.334 127.591 460.334 126.312C460.334 125.033 459.729 124.394 458.519 124.394ZM472.176 124.394C470.966 124.394 470.36 125.033 470.36 126.312C470.36 127.591 470.966 128.23 472.176 128.23C473.386 128.23 473.991 127.591 473.991 126.312C473.991 125.033 473.386 124.394 472.176 124.394ZM514.789 126.312C514.789 124.393 512.628 123.754 511.591 125.398C510.813 126.678 511.851 128.23 513.493 128.23C514.185 128.23 514.789 127.408 514.789 126.312ZM520.235 124.394C519.025 124.394 518.42 125.033 518.42 126.312C518.42 127.591 519.025 128.23 520.235 128.23C521.445 128.23 522.05 127.591 522.05 126.312C522.05 125.033 521.445 124.394 520.235 124.394ZM547.463 124.394C546.253 124.394 545.648 125.033 545.647 126.312C545.647 127.591 546.253 128.23 547.463 128.23C548.673 128.23 549.278 127.591 549.278 126.312C549.278 125.033 548.673 124.394 547.463 124.394ZM581.951 124.394C580.741 124.394 580.136 125.033 580.136 126.312C580.136 127.591 580.741 128.23 581.951 128.23C583.161 128.23 583.766 127.591 583.766 126.312C583.766 125.033 583.161 124.394 581.951 124.394ZM595.608 124.394C594.398 124.394 593.793 125.033 593.793 126.312C593.793 127.591 594.398 128.23 595.608 128.23C596.818 128.23 597.423 127.59 597.423 126.312C597.423 125.033 596.818 124.394 595.608 124.394ZM541.152 110.049C540.029 110.049 539.338 110.688 539.338 111.602C539.338 112.424 538.473 113.338 537.522 113.612C536.485 113.886 535.707 114.617 535.707 115.348C535.707 115.987 534.843 116.81 533.893 117.084C532.855 117.358 532.077 118.271 532.077 119.094C532.077 119.916 532.769 120.556 533.893 120.556C534.843 120.555 535.707 119.916 535.707 119.186C535.707 118.363 536.312 117.724 537.09 117.724C537.781 117.724 538.646 118.363 538.992 119.186C539.684 121.104 542.968 121.012 542.968 119.094C542.968 118.271 542.103 117.358 541.152 117.084C540.115 116.81 539.338 115.987 539.338 115.348C539.338 114.617 540.115 113.886 541.152 113.612C542.103 113.338 542.968 112.424 542.968 111.602C542.968 110.688 542.189 110.049 541.152 110.049ZM431.292 116.718C430.082 116.718 429.477 117.358 429.477 118.637C429.477 119.916 430.082 120.556 431.292 120.556C432.502 120.556 433.106 119.916 433.106 118.637C433.106 117.358 432.502 116.718 431.292 116.718ZM446.764 118.637C446.764 116.809 444.948 116.078 443.651 117.357C442.441 118.728 443.133 120.556 444.948 120.556C446.158 120.556 446.764 119.916 446.764 118.637ZM460.334 118.637C460.334 116.809 458.519 116.078 457.309 117.357C456.099 118.728 456.791 120.556 458.52 120.556C459.729 120.556 460.334 119.916 460.334 118.637ZM473.991 118.637C473.991 116.81 472.176 116.078 470.966 117.357C469.669 118.728 470.361 120.555 472.176 120.556C473.386 120.556 473.991 119.916 473.991 118.637ZM513.406 116.718C512.715 116.718 512.024 116.901 512.023 116.992C511.246 119.55 511.505 120.556 513.061 120.556C514.184 120.556 514.789 119.916 514.789 118.637C514.789 117.632 514.184 116.718 513.406 116.718ZM521.877 118.911C521.445 116.444 518.42 116.17 518.42 118.637C518.42 120.007 519.025 120.556 520.321 120.556C521.618 120.556 522.05 120.099 521.877 118.911ZM529.138 118.911C528.706 116.444 525.681 116.17 525.681 118.637C525.681 120.007 526.286 120.556 527.582 120.556C528.879 120.556 529.311 120.099 529.138 118.911ZM595.607 110.049C594.484 110.049 593.793 110.688 593.793 111.602C593.793 112.424 592.928 113.337 591.978 113.611C590.94 113.885 590.162 114.617 590.162 115.348C590.162 115.987 589.297 116.81 588.347 117.084C587.31 117.358 586.532 118.272 586.532 119.094C586.532 119.916 587.223 120.556 588.347 120.556C589.297 120.556 590.162 119.916 590.162 119.186C590.162 118.363 590.94 117.724 591.978 117.724C592.928 117.724 593.793 118.363 593.793 119.186C593.793 119.916 594.484 120.556 595.435 120.556C596.385 120.556 597.077 119.916 597.077 119.002C597.077 118.18 596.299 117.266 595.435 116.992C593.188 116.353 593.274 114.251 595.607 113.611C596.558 113.337 597.423 112.424 597.423 111.602C597.423 110.688 596.645 110.049 595.607 110.049ZM609.265 110.049C608.314 110.049 607.363 110.871 607.104 111.967C606.844 113.063 606.153 113.886 605.548 113.886C604.943 113.886 604.251 113.063 603.992 111.967C603.733 110.871 602.782 110.049 601.831 110.049C600.708 110.049 600.103 110.688 600.103 111.967C600.103 113.246 600.708 113.886 601.918 113.886C602.955 113.886 603.732 114.525 603.732 115.256C603.732 115.987 602.955 116.81 601.918 117.084C600.881 117.358 600.103 118.271 600.103 119.094C600.103 119.916 600.881 120.556 601.918 120.556C602.955 120.556 603.732 119.916 603.732 119.186C603.732 118.363 604.511 117.724 605.548 117.724C606.585 117.724 607.363 118.363 607.363 119.186C607.364 119.916 608.142 120.556 609.179 120.556C610.216 120.556 610.993 119.916 610.993 119.094C610.993 118.272 610.216 117.358 609.179 117.084C608.141 116.81 607.363 115.987 607.363 115.256C607.364 114.525 608.142 113.886 609.179 113.886C610.389 113.886 610.993 113.246 610.993 111.967C610.993 110.688 610.388 110.049 609.265 110.049ZM452.209 110.049C450.999 110.049 450.394 110.689 450.394 111.968C450.394 113.247 450.999 113.886 452.209 113.886C453.419 113.886 454.024 113.247 454.024 111.968C454.024 110.689 453.419 110.049 452.209 110.049ZM465.78 110.049C464.57 110.049 463.965 110.689 463.965 111.968C463.965 113.247 464.57 113.886 465.78 113.886C466.99 113.886 467.595 113.246 467.595 111.968C467.595 110.689 466.99 110.049 465.78 110.049ZM506.664 110.049C505.454 110.049 504.85 110.689 504.85 111.968C504.85 113.246 505.454 113.886 506.664 113.886C507.874 113.886 508.479 113.247 508.479 111.968C508.479 110.689 507.874 110.049 506.664 110.049ZM520.235 110.049C519.025 110.049 518.42 110.689 518.42 111.968C518.42 113.247 519.025 113.886 520.235 113.886C521.445 113.886 522.05 113.247 522.05 111.968C522.05 110.689 521.445 110.049 520.235 110.049ZM533.893 110.049C532.682 110.049 532.077 110.689 532.077 111.968C532.077 113.247 532.683 113.886 533.893 113.886C535.102 113.886 535.707 113.246 535.707 111.968C535.707 110.689 535.102 110.049 533.893 110.049ZM547.463 110.049C546.253 110.049 545.647 110.689 545.647 111.968C545.648 113.247 546.253 113.886 547.463 113.886C548.673 113.886 549.278 113.247 549.278 111.968C549.278 110.689 548.673 110.049 547.463 110.049ZM588.347 110.049C587.137 110.049 586.532 110.689 586.532 111.968C586.532 113.246 587.137 113.886 588.347 113.886C589.557 113.886 590.162 113.247 590.162 111.968C590.162 110.689 589.557 110.049 588.347 110.049ZM512.888 110.049C511.591 110.049 511.159 110.597 511.332 111.693C511.764 114.251 514.789 114.525 514.789 112.059C514.789 110.688 514.184 110.049 512.888 110.049ZM527.409 110.049C526.286 110.049 525.681 110.688 525.681 112.059C525.681 113.338 526.2 113.886 527.15 113.703C529.397 113.246 529.57 110.049 527.409 110.049ZM440.194 104.566C439.762 102.008 436.737 101.734 436.737 104.201C436.737 105.571 437.342 106.211 438.639 106.211C439.935 106.211 440.367 105.663 440.194 104.566ZM453.852 104.566C453.333 102.008 450.394 101.734 450.394 104.201C450.394 105.571 450.913 106.211 452.209 106.211C453.506 106.211 454.024 105.663 453.852 104.566ZM467.422 104.566C466.99 102.008 463.965 101.734 463.965 104.201C463.965 105.571 464.57 106.211 465.866 106.211C467.163 106.211 467.595 105.663 467.422 104.566ZM506.664 102.374C505.454 102.374 504.85 103.013 504.85 104.292C504.85 105.571 505.454 106.211 506.664 106.211C507.874 106.211 508.479 105.571 508.479 104.292C508.479 103.013 507.874 102.374 506.664 102.374ZM514.789 104.292C514.789 102.465 512.975 101.734 511.765 103.013C510.555 104.292 511.246 106.211 512.975 106.211C514.185 106.211 514.789 105.571 514.789 104.292ZM520.235 102.374C519.025 102.374 518.42 103.013 518.42 104.292C518.42 105.571 519.025 106.211 520.235 106.211C521.445 106.211 522.05 105.571 522.05 104.292C522.05 103.013 521.445 102.374 520.235 102.374ZM529.138 104.566C528.706 102.008 525.681 101.734 525.681 104.201C525.681 105.571 526.286 106.211 527.582 106.211C528.879 106.211 529.311 105.663 529.138 104.566ZM533.893 102.374C532.683 102.374 532.077 103.013 532.077 104.292C532.077 105.571 532.682 106.211 533.893 106.211C535.102 106.211 535.707 105.571 535.707 104.292C535.707 103.013 535.102 102.374 533.893 102.374ZM542.795 104.566C542.536 103.196 539.51 101.46 539.251 102.557C538.473 105.754 538.732 106.211 540.807 106.211C542.449 106.211 542.968 105.754 542.795 104.566ZM547.463 102.374C546.253 102.374 545.648 103.013 545.647 104.292C545.647 105.571 546.253 106.211 547.463 106.211C548.673 106.211 549.278 105.571 549.278 104.292C549.278 103.013 548.673 102.374 547.463 102.374ZM583.593 104.566C583.161 102.008 580.136 101.734 580.136 104.201C580.136 105.571 580.741 106.211 582.037 106.211C583.334 106.211 583.766 105.663 583.593 104.566ZM590.162 104.292C590.162 102.465 588.347 101.734 587.137 103.013C585.84 104.292 586.532 106.211 588.347 106.211C589.557 106.211 590.162 105.571 590.162 104.292ZM597.25 104.566C596.731 102.008 593.793 101.734 593.793 104.201C593.793 105.572 594.312 106.211 595.608 106.211C596.905 106.211 597.423 105.663 597.25 104.566ZM603.733 104.292C603.733 102.465 601.918 101.734 600.708 103.013C599.498 104.292 600.189 106.211 601.918 106.211C603.128 106.211 603.733 105.571 603.733 104.292ZM610.821 104.566C610.389 102.008 607.363 101.734 607.363 104.201C607.363 105.571 607.968 106.211 609.265 106.211C610.561 106.211 610.994 105.663 610.821 104.566ZM617.39 104.292C617.389 102.465 615.574 101.734 614.364 103.013C613.068 104.292 613.759 106.211 615.574 106.211C616.784 106.211 617.39 105.571 617.39 104.292ZM624.478 104.566C623.959 102.008 621.021 101.734 621.021 104.201C621.021 105.572 621.539 106.211 622.836 106.211C624.132 106.211 624.65 105.663 624.478 104.566ZM527.409 95.6123C526.286 95.6123 525.681 96.3436 525.681 97.5312C525.681 98.8104 526.286 99.4502 527.323 99.4502C528.274 99.45 528.965 98.7188 529.052 97.5312C529.138 96.2522 528.619 95.6123 527.409 95.6123ZM547.463 95.6123C546.253 95.6123 545.648 96.2522 545.647 97.5312C545.647 98.8104 546.253 99.4502 547.463 99.4502C548.673 99.4501 549.278 98.8103 549.278 97.5312C549.278 96.2523 548.673 95.6124 547.463 95.6123ZM581.951 95.6123C580.741 95.6123 580.136 96.2522 580.136 97.5312C580.136 98.8104 580.741 99.4502 581.951 99.4502C583.161 99.4501 583.766 98.8103 583.766 97.5312C583.766 96.2523 583.161 95.6124 581.951 95.6123ZM588.347 95.6123C587.137 95.6124 586.532 96.2523 586.532 97.5312C586.532 98.8102 587.137 99.4501 588.347 99.4502C589.557 99.4502 590.162 98.8104 590.162 97.5312C590.162 96.2522 589.557 95.6123 588.347 95.6123ZM601.918 95.6123C600.708 95.6123 600.103 96.2522 600.103 97.5312C600.103 98.8104 600.708 99.4502 601.918 99.4502C603.128 99.4501 603.732 98.8103 603.732 97.5312C603.732 96.2523 603.128 95.6124 601.918 95.6123ZM609.179 95.6123C607.969 95.6123 607.363 96.2522 607.363 97.5312C607.363 98.8104 607.969 99.4502 609.179 99.4502C610.389 99.4501 610.994 98.8103 610.994 97.5312C610.994 96.2523 610.389 95.6124 609.179 95.6123ZM615.574 95.6123C614.364 95.6125 613.76 96.2524 613.76 97.5312C613.76 98.8102 614.364 99.45 615.574 99.4502C616.784 99.4502 617.39 98.8104 617.39 97.5312C617.39 96.2522 616.784 95.6123 615.574 95.6123ZM622.836 95.6123C621.626 95.6123 621.021 96.2522 621.021 97.5312C621.021 98.8104 621.626 99.4502 622.836 99.4502C624.046 99.4501 624.65 98.8103 624.65 97.5312C624.65 96.2523 624.046 95.6124 622.836 95.6123ZM629.146 95.6123C627.935 95.6123 627.33 96.2522 627.33 97.5312C627.33 98.8104 627.935 99.4502 629.146 99.4502C630.355 99.4501 630.961 98.8103 630.961 97.5312C630.961 96.2523 630.355 95.6124 629.146 95.6123ZM512.888 95.6123C511.937 95.6123 511.159 96.3437 511.159 97.166C511.159 98.8105 513.32 99.9986 514.703 99.085C516.086 98.1713 514.789 95.6123 512.888 95.6123ZM541.152 95.6123C539.856 95.6124 539.338 96.2527 539.338 97.623C539.338 98.9934 539.77 99.5411 540.894 99.3584C543.227 98.81 543.486 95.6123 541.152 95.6123ZM595.608 95.6123C594.312 95.6123 593.793 96.2525 593.793 97.623C593.793 98.9934 594.225 99.5411 595.349 99.3584C597.682 98.8102 597.942 95.6127 595.608 95.6123ZM433.106 89.8564C433.106 88.0291 431.291 87.2984 430.081 88.6689C428.871 89.948 429.563 91.7751 431.291 91.7754C432.501 91.7754 433.106 91.1355 433.106 89.8564ZM446.764 89.8564C446.764 88.0291 444.948 87.2984 443.651 88.6689C442.442 89.948 443.133 91.7753 444.948 91.7754C446.158 91.7754 446.764 91.1355 446.764 89.8564ZM460.334 89.8564C460.334 88.0291 458.519 87.2984 457.309 88.6689C456.099 89.9481 456.791 91.7754 458.52 91.7754C459.729 91.7752 460.334 91.1354 460.334 89.8564ZM473.991 89.8564C473.991 88.0291 472.176 87.2984 470.966 88.6689C469.67 89.948 470.361 91.7751 472.176 91.7754C473.386 91.7754 473.991 91.1355 473.991 89.8564ZM499.922 88.1201C499.144 87.9375 498.453 87.9376 498.366 88.1201C497.675 91.3179 497.848 91.7754 499.836 91.7754C502.256 91.7753 502.428 88.6683 499.922 88.1201ZM506.405 88.1201C505.282 87.9374 504.85 88.4859 504.85 89.8564C504.85 91.2267 505.368 91.7753 506.664 91.7754C508.998 91.7754 508.739 88.6684 506.405 88.1201ZM514.789 89.8564C514.789 88.0291 512.975 87.2985 511.765 88.6689C510.555 89.9481 511.246 91.7754 512.975 91.7754C514.185 91.7753 514.789 91.1354 514.789 89.8564ZM520.235 87.9375C519.025 87.9375 518.42 88.5773 518.42 89.8564C518.42 91.1355 519.025 91.7754 520.235 91.7754C521.445 91.7753 522.05 91.1354 522.05 89.8564C522.05 88.5774 521.445 87.9376 520.235 87.9375ZM527.15 88.1201C526.2 87.9374 525.681 88.4859 525.681 89.8564C525.681 91.1355 526.286 91.7754 527.409 91.7754C529.57 91.7754 529.397 88.5772 527.15 88.1201ZM535.707 89.8564C535.707 88.0291 533.892 87.2984 532.682 88.6689C531.386 89.9481 532.078 91.7754 533.893 91.7754C535.102 91.7752 535.707 91.1354 535.707 89.8564ZM542.795 90.1309C542.536 88.7605 539.511 87.0243 539.251 88.1201C538.473 91.4092 538.732 91.7754 540.807 91.7754C542.449 91.7754 542.968 91.4097 542.795 90.1309ZM547.463 87.9375C546.253 87.9375 545.647 88.5773 545.647 89.8564C545.647 91.1355 546.253 91.7754 547.463 91.7754C548.673 91.7753 549.278 91.1355 549.278 89.8564C549.278 88.5774 548.673 87.9376 547.463 87.9375ZM590.162 89.8564C590.162 88.0291 588.347 87.2984 587.137 88.6689C585.841 89.948 586.532 91.7751 588.347 91.7754C589.557 91.7754 590.162 91.1355 590.162 89.8564ZM595.349 88.1201C594.225 87.9374 593.793 88.486 593.793 89.8564C593.793 91.2269 594.312 91.7754 595.608 91.7754C597.942 91.775 597.682 88.6683 595.349 88.1201ZM603.733 89.8564C603.733 88.0291 601.918 87.2984 600.708 88.6689C599.498 89.9481 600.189 91.7754 601.918 91.7754C603.128 91.7754 603.733 91.1355 603.733 89.8564ZM610.821 90.1309C610.389 87.664 607.363 87.3895 607.363 89.8564C607.363 91.2268 607.968 91.7753 609.265 91.7754C610.561 91.7754 610.994 91.3183 610.821 90.1309ZM617.39 89.8564C617.39 88.0291 615.574 87.2984 614.364 88.6689C613.068 89.948 613.76 91.7751 615.574 91.7754C616.784 91.7754 617.39 91.1355 617.39 89.8564ZM624.478 90.1309C623.959 87.664 621.021 87.3895 621.021 89.8564C621.021 91.2269 621.539 91.7754 622.836 91.7754C624.132 91.7753 624.65 91.3183 624.478 90.1309ZM630.961 89.8564C630.961 88.0291 629.146 87.2984 627.936 88.6689C626.726 89.9481 627.417 91.7754 629.146 91.7754C630.356 91.7754 630.961 91.1355 630.961 89.8564ZM465.78 81.2686C464.57 81.2686 463.965 81.9076 463.965 83.1865C463.965 84.4657 464.57 85.1055 465.78 85.1055C466.99 85.1053 467.595 84.4655 467.595 83.1865C467.595 81.9078 466.99 81.2687 465.78 81.2686ZM506.664 81.2686C505.454 81.2687 504.85 81.9077 504.85 83.1865C504.85 84.4655 505.454 85.1053 506.664 85.1055C507.874 85.1055 508.479 84.4657 508.479 83.1865C508.479 81.9076 507.874 81.2686 506.664 81.2686ZM520.235 81.2686C519.025 81.2686 518.42 81.9076 518.42 83.1865C518.42 84.4657 519.025 85.1055 520.235 85.1055C521.445 85.1054 522.05 84.4656 522.05 83.1865C522.05 81.9077 521.445 81.2687 520.235 81.2686ZM533.893 81.2686C532.683 81.2686 532.077 81.9076 532.077 83.1865C532.077 84.4657 532.682 85.1055 533.893 85.1055C535.102 85.1053 535.707 84.4655 535.707 83.1865C535.707 81.9078 535.102 81.2687 533.893 81.2686ZM588.347 81.2686C587.137 81.2687 586.532 81.9077 586.532 83.1865C586.532 84.4655 587.137 85.1053 588.347 85.1055C589.557 85.1055 590.162 84.4657 590.162 83.1865C590.162 81.9076 589.557 81.2686 588.347 81.2686ZM595.608 81.2686C594.398 81.2686 593.793 81.9076 593.793 83.1865C593.793 84.4657 594.398 85.1055 595.608 85.1055C596.818 85.1053 597.423 84.4655 597.423 83.1865C597.423 81.9078 596.818 81.2687 595.608 81.2686ZM601.918 81.2686C600.708 81.2686 600.103 81.9076 600.103 83.1865C600.103 84.4657 600.708 85.1055 601.918 85.1055C603.128 85.1054 603.732 84.4655 603.732 83.1865C603.732 81.9077 603.128 81.2687 601.918 81.2686ZM609.179 81.2686C607.969 81.2686 607.363 81.9076 607.363 83.1865C607.363 84.4657 607.969 85.1055 609.179 85.1055C610.389 85.1054 610.994 84.4656 610.994 83.1865C610.994 81.9076 610.389 81.2686 609.179 81.2686ZM615.574 81.2686C614.365 81.2687 613.76 81.9078 613.76 83.1865C613.76 84.4655 614.364 85.1053 615.574 85.1055C616.784 85.1055 617.39 84.4657 617.39 83.1865C617.39 81.9076 616.784 81.2686 615.574 81.2686ZM622.836 81.2686C621.626 81.2686 621.021 81.9076 621.021 83.1865C621.021 84.4657 621.626 85.1055 622.836 85.1055C624.046 85.1054 624.65 84.4655 624.65 83.1865C624.65 81.9077 624.046 81.2687 622.836 81.2686ZM629.146 81.2686C627.935 81.2686 627.33 81.9076 627.33 83.1865C627.33 84.4657 627.935 85.1055 629.146 85.1055C630.355 85.1054 630.961 84.4656 630.961 83.1865C630.961 81.9077 630.355 81.2686 629.146 81.2686ZM540.894 81.4512C539.77 81.2684 539.338 81.7248 539.338 83.1865C539.338 84.6484 539.77 85.1056 540.894 84.9229C541.758 84.7401 542.449 84.0088 542.449 83.1865C542.449 82.3644 541.758 81.634 540.894 81.4512ZM451.95 73.7764C450.827 73.5936 450.394 74.0504 450.394 75.4209C450.394 76.7912 450.913 77.4306 452.209 77.4307C454.543 77.4307 454.284 74.2335 451.95 73.7764ZM465.521 73.7764C464.483 73.5936 463.965 74.0504 463.965 75.4209C463.965 76.7913 464.57 77.4307 465.866 77.4307C468.2 77.4307 467.941 74.2332 465.521 73.7764ZM493.008 73.5938C491.798 73.5938 491.193 74.2329 491.192 75.5117C491.192 76.7908 491.798 77.4307 493.008 77.4307C494.218 77.4305 494.822 76.7907 494.822 75.5117C494.822 74.233 494.218 73.5939 493.008 73.5938ZM506.664 73.5938C505.454 73.5939 504.85 74.233 504.85 75.5117C504.85 76.7907 505.454 77.4305 506.664 77.4307C507.874 77.4307 508.479 76.7908 508.479 75.5117C508.479 74.2329 507.874 73.5938 506.664 73.5938ZM520.235 73.5938C519.025 73.5938 518.42 74.2329 518.42 75.5117C518.42 76.7908 519.025 77.4307 520.235 77.4307C521.445 77.4306 522.05 76.7907 522.05 75.5117C522.05 74.233 521.445 73.5938 520.235 73.5938ZM527.236 73.7764C526.199 73.5936 525.681 74.0504 525.681 75.4209C525.681 76.7913 526.286 77.4306 527.582 77.4307C529.916 77.4307 529.657 74.2332 527.236 73.7764ZM533.893 73.5938C532.683 73.5938 532.077 74.2329 532.077 75.5117C532.077 76.7908 532.682 77.4307 533.893 77.4307C535.102 77.4305 535.707 76.7907 535.707 75.5117C535.707 74.233 535.102 73.5939 533.893 73.5938ZM542.795 75.7861C542.449 74.0502 540.115 73.0452 539.078 74.1416C538.041 75.238 539.51 77.4307 541.239 77.4307C542.449 77.4306 542.968 76.8825 542.795 75.7861ZM588.347 73.5928C587.137 73.5929 586.532 74.2328 586.532 75.5117C586.532 76.7907 587.137 77.4305 588.347 77.4307C589.557 77.4307 590.162 76.7908 590.162 75.5117C590.162 74.2326 589.557 73.5928 588.347 73.5928ZM597.25 75.7861C596.731 73.2279 593.793 72.954 593.793 75.4209C593.793 76.7911 594.312 77.4307 595.608 77.4307C596.905 77.4305 597.423 76.8823 597.25 75.7861ZM601.918 73.5928C600.708 73.5928 600.103 74.2326 600.103 75.5117C600.103 76.7908 600.708 77.4307 601.918 77.4307C603.128 77.4305 603.732 76.7907 603.732 75.5117C603.732 74.2328 603.128 73.5929 601.918 73.5928ZM609.179 73.5928C607.969 73.5928 607.363 74.2326 607.363 75.5117C607.363 76.7908 607.969 77.4307 609.179 77.4307C610.389 77.4306 610.994 76.7908 610.994 75.5117C610.994 74.2327 610.389 73.5928 609.179 73.5928ZM617.39 75.5117C617.39 73.6844 615.574 72.9533 614.364 74.2324C613.068 75.5114 613.759 77.4303 615.574 77.4307C616.784 77.4307 617.39 76.7908 617.39 75.5117ZM622.836 73.5928C621.626 73.5928 621.021 74.2326 621.021 75.5117C621.021 76.7908 621.626 77.4307 622.836 77.4307C624.046 77.4305 624.65 76.7907 624.65 75.5117C624.65 74.2328 624.046 73.5929 622.836 73.5928ZM630.961 75.5117C630.961 73.6845 629.146 72.9536 627.936 74.2324C626.725 75.5116 627.417 77.4306 629.146 77.4307C630.356 77.4307 630.961 76.7908 630.961 75.5117ZM638.048 75.7861C637.616 73.2279 634.591 72.954 634.591 75.4209C634.591 76.791 635.196 77.4306 636.492 77.4307C637.789 77.4307 638.221 76.8824 638.048 75.7861ZM453.61 0C461.647 4.86467e-05 468.223 2.74566 473.338 8.23633C475.63 10.6146 477.406 13.2508 478.671 16.1436C477.972 16.3767 477.622 16.9788 477.622 17.9512C477.622 19.2302 478.227 19.87 479.437 19.8701C479.628 19.8701 479.804 19.8513 479.965 19.8193C480.66 22.373 481.01 25.1008 481.01 28.0029C481.01 35.8728 478.452 42.5533 473.338 48.0439C468.223 53.3516 461.647 56.0048 453.61 56.0049C445.756 56.0049 439.18 53.3515 433.883 48.0439C428.768 42.5533 426.211 35.8728 426.211 28.0029C426.211 20.1329 428.768 13.544 433.883 8.23633C439.18 2.74561 445.756 0 453.61 0ZM465.521 44.9961C464.483 44.8134 463.965 45.2701 463.965 46.6406C463.965 48.0109 464.57 48.6504 465.866 48.6504C468.2 48.6504 467.941 45.453 465.521 44.9961ZM431.292 30.377C430.082 30.377 429.477 31.0168 429.477 32.2959C429.477 33.5749 430.082 34.2148 431.292 34.2148C432.502 34.2147 433.106 33.5748 433.106 32.2959C433.106 31.0169 432.502 30.3771 431.292 30.377ZM444.948 30.377C443.738 30.3771 443.134 31.0169 443.134 32.2959C443.134 33.5748 443.738 34.2147 444.948 34.2148C446.158 34.2148 446.764 33.5749 446.764 32.2959C446.764 31.0168 446.158 30.377 444.948 30.377ZM458.519 30.377C457.309 30.3771 456.704 31.0169 456.704 32.2959C456.704 33.5748 457.309 34.2147 458.519 34.2148C459.729 34.2148 460.334 33.5749 460.334 32.2959C460.334 31.0168 459.729 30.377 458.519 30.377ZM472.176 30.377C470.966 30.377 470.36 31.0168 470.36 32.2959C470.36 33.5749 470.966 34.2148 472.176 34.2148C473.386 34.2148 473.991 33.5749 473.991 32.2959C473.991 31.0168 473.386 30.377 472.176 30.377ZM465.78 16.0322C464.57 16.0322 463.965 16.672 463.965 17.9512C463.965 19.2303 464.57 19.8701 465.78 19.8701C466.99 19.8699 467.595 19.2301 467.595 17.9512C467.595 16.6722 466.99 16.0324 465.78 16.0322ZM444.948 1.59668C443.738 1.5968 443.134 2.23662 443.134 3.51562C443.134 4.79439 443.738 5.43347 444.948 5.43359C446.158 5.43359 446.764 4.79451 446.764 3.51562C446.764 2.23649 446.158 1.59668 444.948 1.59668ZM458.519 1.59668C457.309 1.59679 456.704 2.2366 456.704 3.51562C456.704 4.7944 457.309 5.43348 458.519 5.43359C459.729 5.43359 460.334 4.79451 460.334 3.51562C460.334 2.23649 459.729 1.59668 458.519 1.59668Z" fill="#0044FF"/>
</svg>
