<svg width="349" height="207" viewBox="0 0 349 207" fill="none" xmlns="http://www.w3.org/2000/svg">
<path d="M259.398 203.617L220.413 129.915L220.413 202.651L143.309 202.651L143.309 191.784C138.468 195.441 132.952 198.525 126.758 201.036C117.069 204.804 106.439 206.688 94.8662 206.688C76.2966 206.688 59.8798 202.247 45.6162 193.366C31.3527 184.485 20.184 172.374 12.1104 157.034C4.03675 141.425 -1.17378e-06 123.528 1.23236e-06 103.344C7.62443e-05 83.1596 4.03666 65.2625 12.1104 49.6533C20.1841 34.0442 31.3527 21.9332 45.6162 13.3213C59.8798 4.44022 76.2967 2.60775e-05 94.8662 3.02109e-06C106.439 4.40062e-06 117.069 2.01883 126.758 6.05567C132.952 8.39927 138.468 11.3679 143.309 14.9609L143.309 4.03711L220.413 4.03711L220.413 71.1006L258.994 5.00195L344.173 5.00195L282.473 97.2021L348.21 203.617L259.398 203.617ZM132.101 103.771C132.1 82.5632 114.908 65.3701 93.6992 65.3701C72.491 65.3703 55.2982 82.5633 55.2979 103.771C55.2979 124.98 72.4908 142.174 93.6992 142.174C114.908 142.174 132.101 124.98 132.101 103.771Z" fill="black"/>
</svg>
