<svg width="643" height="207" viewBox="0 0 643 207" fill="none" xmlns="http://www.w3.org/2000/svg">
<path d="M478.96 203.706H425.26V80.1704L432.112 68.6346H478.96V203.706Z" fill="white"/>
<path d="M433.883 48.0438C439.18 53.3515 445.756 56.0053 453.61 56.0053C461.647 56.0053 468.223 53.3515 473.338 48.0438C478.452 42.5531 481.009 35.8727 481.009 28.0026C481.009 20.1326 478.452 13.5438 473.338 8.23609C468.223 2.74537 461.647 0 453.61 0C445.756 0 439.18 2.74537 433.883 8.23609C428.768 13.5438 426.211 20.1326 426.211 28.0026C426.211 35.8727 428.768 42.5531 433.883 48.0438Z" fill="white"/>
<path d="M539.979 203.706L487.098 68.634H544.089L575.05 183.664H555.596L586.284 68.634H643L590.119 203.706H539.979Z" fill="white"/>
<path d="M365.877 203.706L328.34 132.601L365.603 68.634H423.416L375.193 140.837L376.563 123.267L426.156 203.706H365.877ZM279.022 203.706V2.74536H332.298L332.724 203.706H279.022Z" fill="white"/>
<path d="M157.277 204.255V69.183H210.979V204.255H157.277ZM210.979 131.228L186.046 108.991C192.987 94.3488 201.024 83.6419 210.157 76.87C219.473 69.9151 231.072 66.4377 244.955 66.4377C251.165 66.4377 256.462 67.1698 260.846 68.634C265.413 70.0981 269.066 72.2029 271.806 74.9483L241.667 117.776C240.388 116.312 238.47 115.122 235.913 114.207C233.538 113.109 230.707 112.56 227.419 112.56C221.939 112.56 217.829 114.207 215.089 117.501C212.349 120.613 210.979 125.188 210.979 131.228Z" fill="white"/>
<path d="M64.3883 207C51.7846 207 40.6423 203.98 30.9612 197.94C21.2801 191.901 13.6996 183.664 8.21978 173.232C2.73993 162.617 0 150.446 0 136.719C0 122.992 2.73993 110.821 8.21978 100.206C13.6996 89.5902 21.2801 81.3541 30.9612 75.4974C40.6423 69.4576 51.7846 66.4377 64.3883 66.4377C72.2427 66.4377 79.4579 67.8103 86.0337 70.5557C92.7922 73.118 98.3634 76.7785 102.747 81.5371C107.314 86.2958 110.236 91.7865 111.515 98.0093V175.428C110.236 181.651 107.314 187.142 102.747 191.901C98.3634 196.659 92.7922 200.411 86.0337 203.156C79.4579 205.719 72.2427 207 64.3883 207ZM76.444 159.78C83.2024 159.78 88.591 157.675 92.6095 153.466C96.8108 149.073 98.9114 143.491 98.9114 136.719C98.9114 132.143 97.9981 128.208 96.1714 124.914C94.3448 121.436 91.6962 118.691 88.2257 116.678C84.9377 114.664 81.1018 113.658 76.718 113.658C72.3341 113.658 68.4068 114.664 64.9363 116.678C61.6484 118.691 58.9998 121.436 56.9905 124.914C54.9812 128.391 53.9766 132.326 53.9766 136.719C53.9766 141.111 54.8899 145.046 56.7165 148.524C58.7258 152.001 61.4657 154.747 64.9363 156.76C68.4068 158.773 72.2427 159.78 76.444 159.78ZM97.2674 204.255V168.016L104.665 135.072L97.2674 102.402V69.183H149.6V204.255H97.2674Z" fill="white"/>
</svg>
